<svg width="22" height="22" viewBox="0 0 22 22" fill="none" xmlns="http://www.w3.org/2000/svg">
<circle cx="11" cy="11" r="11" fill="#FA36C3"/>
<path d="M12.0066 14.8497C11.9245 14.8499 11.8433 14.8318 11.769 14.7966C11.6948 14.7614 11.6294 14.71 11.5776 14.6462L8.92114 11.3462C8.84024 11.2478 8.79602 11.1243 8.79602 10.9969C8.79602 10.8695 8.84024 10.7461 8.92114 10.6477L11.6711 7.34767C11.7645 7.23535 11.8986 7.16472 12.0441 7.15131C12.1895 7.1379 12.3343 7.18281 12.4466 7.27617C12.559 7.36952 12.6296 7.50368 12.643 7.64911C12.6564 7.79454 12.6115 7.93935 12.5181 8.05167L10.0596 10.9997L12.4356 13.9477C12.5029 14.0284 12.5456 14.1267 12.5587 14.231C12.5719 14.3352 12.5549 14.441 12.5097 14.5359C12.4646 14.6308 12.3932 14.7108 12.3041 14.7664C12.2149 14.822 12.1117 14.8509 12.0066 14.8497Z" fill="white"/>
</svg>
