<svg width="7" height="12" viewBox="0 0 7 12" fill="none" xmlns="http://www.w3.org/2000/svg">
<path d="M1.53606 11.5994C1.65558 11.5998 1.77367 11.5735 1.88165 11.5222C1.98964 11.471 2.08477 11.3963 2.16006 11.3034L6.02406 6.50344C6.14173 6.36029 6.20605 6.18074 6.20605 5.99544C6.20605 5.81014 6.14173 5.63059 6.02406 5.48744L2.02406 0.687439C1.88827 0.524066 1.69314 0.421326 1.4816 0.401823C1.27006 0.382319 1.05944 0.447648 0.896065 0.583439C0.732691 0.71923 0.629952 0.914359 0.610448 1.1259C0.590945 1.33744 0.656274 1.54807 0.792065 1.71144L4.36806 5.99944L0.912065 10.2874C0.814239 10.4049 0.752097 10.5479 0.732993 10.6995C0.71389 10.8511 0.738623 11.0051 0.804268 11.1431C0.869913 11.2811 0.973721 11.3975 1.10341 11.4783C1.2331 11.5592 1.38324 11.6012 1.53606 11.5994Z" fill="white"/>
</svg>
