<svg width="7" height="12" viewBox="0 0 7 12" fill="none" xmlns="http://www.w3.org/2000/svg">
<path d="M5.46394 11.5994C5.34442 11.5998 5.22633 11.5735 5.11835 11.5222C5.01036 11.471 4.91523 11.3963 4.83994 11.3034L0.975936 6.50344C0.85827 6.36029 0.793945 6.18074 0.793945 5.99544C0.793945 5.81014 0.85827 5.63058 0.975936 5.48744L4.97594 0.687439C5.11173 0.524066 5.30686 0.421326 5.5184 0.401823C5.72994 0.382319 5.94056 0.447648 6.10394 0.583439C6.26731 0.71923 6.37005 0.914359 6.38955 1.1259C6.40906 1.33744 6.34373 1.54807 6.20794 1.71144L2.63194 5.99944L6.08793 10.2874C6.18576 10.4049 6.2479 10.5479 6.26701 10.6995C6.28611 10.8511 6.26138 11.0051 6.19573 11.1431C6.13009 11.2811 6.02628 11.3974 5.89659 11.4783C5.7669 11.5592 5.61676 11.6012 5.46394 11.5994Z" fill="white"/>
</svg>
