<svg width="27" height="27" viewBox="0 0 27 27" fill="none" xmlns="http://www.w3.org/2000/svg">
<path d="M17.857 9.4821L7.92383 19.4153C7.71921 19.6199 7.45879 19.7222 7.14257 19.7222C6.82634 19.7222 6.56592 19.6199 6.36131 19.4153C6.15669 19.2107 6.05438 18.9502 6.05438 18.634C6.05438 18.3178 6.15669 18.0574 6.36131 17.8528L16.2945 7.91958H7.81222C7.49599 7.91958 7.23092 7.81262 7.01701 7.59871C6.80309 7.38479 6.69613 7.11972 6.69613 6.80349C6.69613 6.48727 6.80309 6.2222 7.01701 6.00828C7.23092 5.79437 7.49599 5.68741 7.81222 5.68741H18.9731C19.2893 5.68741 19.5544 5.79437 19.7683 6.00828C19.9822 6.2222 20.0892 6.48727 20.0892 6.80349V17.9644C20.0892 18.2806 19.9822 18.5457 19.7683 18.7596C19.5544 18.9735 19.2893 19.0804 18.9731 19.0804C18.6569 19.0804 18.3918 18.9735 18.1779 18.7596C17.964 18.5457 17.857 18.2806 17.857 17.9644V9.4821Z" fill="#434343"/>
</svg>
