<svg width="30" height="30" viewBox="0 0 30 30" fill="none" xmlns="http://www.w3.org/2000/svg">
<path d="M12.5 7.5H17.5V5H12.5V7.5ZM22.5 28.75C20.7708 28.75 19.2969 28.1406 18.0781 26.9219C16.8594 25.7031 16.25 24.2292 16.25 22.5C16.25 20.7708 16.8594 19.2969 18.0781 18.0781C19.2969 16.8594 20.7708 16.25 22.5 16.25C24.2292 16.25 25.7031 16.8594 26.9219 18.0781C28.1406 19.2969 28.75 20.7708 28.75 22.5C28.75 24.2292 28.1406 25.7031 26.9219 26.9219C25.7031 28.1406 24.2292 28.75 22.5 28.75ZM5 26.25C4.3125 26.25 3.72396 26.0052 3.23438 25.5156C2.74479 25.026 2.5 24.4375 2.5 23.75V10C2.5 9.3125 2.74479 8.72396 3.23438 8.23438C3.72396 7.74479 4.3125 7.5 5 7.5H10V5C10 4.3125 10.2448 3.72396 10.7344 3.23438C11.224 2.74479 11.8125 2.5 12.5 2.5H17.5C18.1875 2.5 18.776 2.74479 19.2656 3.23438C19.7552 3.72396 20 4.3125 20 5V7.5H25C25.6875 7.5 26.276 7.74479 26.7656 8.23438C27.2552 8.72396 27.5 9.3125 27.5 10V13.625C27.5 14 27.3385 14.2812 27.0156 14.4688C26.6927 14.6562 26.3542 14.6667 26 14.5C25.4583 14.25 24.8906 14.0625 24.2969 13.9375C23.7031 13.8125 23.1042 13.75 22.5 13.75C20.0833 13.75 18.0208 14.6042 16.3125 16.3125C14.6042 18.0208 13.75 20.0833 13.75 22.5C13.75 22.875 13.776 23.2552 13.8281 23.6406C13.8802 24.026 13.9583 24.4062 14.0625 24.7812C14.1667 25.1354 14.1094 25.4688 13.8906 25.7812C13.6719 26.0938 13.3854 26.25 13.0312 26.25H5ZM23.125 22.25V19.375C23.125 19.2083 23.0625 19.0625 22.9375 18.9375C22.8125 18.8125 22.6667 18.75 22.5 18.75C22.3333 18.75 22.1875 18.8125 22.0625 18.9375C21.9375 19.0625 21.875 19.2083 21.875 19.375V22.2188C21.875 22.3854 21.9062 22.5469 21.9688 22.7031C22.0312 22.8594 22.125 23 22.25 23.125L24.125 25C24.25 25.125 24.3958 25.1875 24.5625 25.1875C24.7292 25.1875 24.875 25.125 25 25C25.125 24.875 25.1875 24.7292 25.1875 24.5625C25.1875 24.3958 25.125 24.25 25 24.125L23.125 22.25Z" fill="#2563EB"/>
</svg>
