<svg width="44" height="45" viewBox="0 0 44 45" fill="none" xmlns="http://www.w3.org/2000/svg">
<rect y="0.5" width="44" height="44" rx="22" fill="#F0F1F4"/>
<path d="M15.481 28.2038V26.5742H17.1107V20.8704C17.1107 19.7433 17.4502 18.7417 18.1292 17.8658C18.8082 16.9899 19.6909 16.4161 20.7773 16.1445V15.5742C20.7773 15.2346 20.8962 14.9461 21.1338 14.7084C21.3715 14.4708 21.6601 14.3519 21.9996 14.3519C22.3391 14.3519 22.6277 14.4708 22.8653 14.7084C23.103 14.9461 23.2218 15.2346 23.2218 15.5742V16.1445C24.3082 16.4161 25.1909 16.9899 25.8699 17.8658C26.5489 18.7417 26.8885 19.7433 26.8885 20.8704V26.5742H28.5181V28.2038H15.481ZM21.9996 30.6482C21.5514 30.6482 21.1678 30.4887 20.8486 30.1695C20.5295 29.8504 20.3699 29.4667 20.3699 29.0186H23.6292C23.6292 29.4667 23.4696 29.8504 23.1505 30.1695C22.8314 30.4887 22.4477 30.6482 21.9996 30.6482Z" fill="#434343"/>
</svg>
