<svg width="30" height="31" viewBox="0 0 30 31" fill="none" xmlns="http://www.w3.org/2000/svg">
<path d="M5 26.767C4.3125 26.767 3.72396 26.5222 3.23438 26.0327C2.74479 25.5431 2.5 24.9545 2.5 24.267V10.517C2.5 9.82953 2.74479 9.24099 3.23438 8.7514C3.72396 8.26182 4.3125 8.01703 5 8.01703H10V5.51703C10 4.82953 10.2448 4.24099 10.7344 3.7514C11.224 3.26182 11.8125 3.01703 12.5 3.01703H17.5C18.1875 3.01703 18.776 3.26182 19.2656 3.7514C19.7552 4.24099 20 4.82953 20 5.51703V8.01703H25C25.6875 8.01703 26.276 8.26182 26.7656 8.7514C27.2552 9.24099 27.5 9.82953 27.5 10.517V24.267C27.5 24.9545 27.2552 25.5431 26.7656 26.0327C26.276 26.5222 25.6875 26.767 25 26.767H5ZM12.5 8.01703H17.5V5.51703H12.5V8.01703Z" fill="#2563EB"/>
</svg>
