<svg width="72" height="72" viewBox="0 0 72 72" fill="none" xmlns="http://www.w3.org/2000/svg">
<g filter="url(#filter0_d_191_1782)">
<circle cx="36" cy="26" r="16" fill="#0055FF"/>
</g>
<path d="M34.5361 31.5994C34.6556 31.5998 34.7737 31.5735 34.8817 31.5222C34.9896 31.471 35.0848 31.3963 35.1601 31.3034L39.0241 26.5034C39.1417 26.3603 39.2061 26.1807 39.2061 25.9954C39.2061 25.8101 39.1417 25.6306 39.0241 25.4874L35.0241 20.6874C34.8883 20.5241 34.6931 20.4213 34.4816 20.4018C34.2701 20.3823 34.0594 20.4476 33.8961 20.5834C33.7327 20.7192 33.63 20.9144 33.6104 21.1259C33.5909 21.3374 33.6563 21.5481 33.7921 21.7114L37.3681 25.9994L33.9121 30.2874C33.8142 30.4049 33.7521 30.5479 33.733 30.6995C33.7139 30.8511 33.7386 31.0051 33.8043 31.1431C33.8699 31.2811 33.9737 31.3975 34.1034 31.4783C34.2331 31.5592 34.3832 31.6012 34.5361 31.5994Z" fill="white"/>
<defs>
<filter id="filter0_d_191_1782" x="0" y="0" width="72" height="72" filterUnits="userSpaceOnUse" color-interpolation-filters="sRGB">
<feFlood flood-opacity="0" result="BackgroundImageFix"/>
<feColorMatrix in="SourceAlpha" type="matrix" values="0 0 0 0 0 0 0 0 0 0 0 0 0 0 0 0 0 0 127 0" result="hardAlpha"/>
<feOffset dy="10"/>
<feGaussianBlur stdDeviation="10"/>
<feComposite in2="hardAlpha" operator="out"/>
<feColorMatrix type="matrix" values="0 0 0 0 0 0 0 0 0 0 0 0 0 0 0 0 0 0 0.1 0"/>
<feBlend mode="normal" in2="BackgroundImageFix" result="effect1_dropShadow_191_1782"/>
<feBlend mode="normal" in="SourceGraphic" in2="effect1_dropShadow_191_1782" result="shape"/>
</filter>
</defs>
</svg>
