<svg width="72" height="72" viewBox="0 0 72 72" fill="none" xmlns="http://www.w3.org/2000/svg">
<g filter="url(#filter0_d_415_21)">
<circle cx="36" cy="26" r="16" fill="#0055FF"/>
</g>
<path d="M37.4643 31.5996C37.3448 31.6 37.2267 31.5736 37.1187 31.5224C37.0107 31.4711 36.9156 31.3964 36.8403 31.3036L32.9763 26.5036C32.8586 26.3604 32.7943 26.1809 32.7943 25.9956C32.7943 25.8103 32.8586 25.6307 32.9763 25.4876L36.9763 20.6876C37.1121 20.5242 37.3072 20.4214 37.5188 20.4019C37.7303 20.3824 37.9409 20.4478 38.1043 20.5836C38.2677 20.7194 38.3704 20.9145 38.3899 21.126C38.4094 21.3376 38.3441 21.5482 38.2083 21.7116L34.6323 25.9996L38.0883 30.2876C38.1861 30.405 38.2483 30.548 38.2674 30.6996C38.2865 30.8513 38.2617 31.0052 38.1961 31.1432C38.1305 31.2812 38.0266 31.3976 37.897 31.4784C37.7673 31.5593 37.6171 31.6013 37.4643 31.5996Z" fill="white"/>
<defs>
<filter id="filter0_d_415_21" x="0" y="0" width="72" height="72" filterUnits="userSpaceOnUse" color-interpolation-filters="sRGB">
<feFlood flood-opacity="0" result="BackgroundImageFix"/>
<feColorMatrix in="SourceAlpha" type="matrix" values="0 0 0 0 0 0 0 0 0 0 0 0 0 0 0 0 0 0 127 0" result="hardAlpha"/>
<feOffset dy="10"/>
<feGaussianBlur stdDeviation="10"/>
<feComposite in2="hardAlpha" operator="out"/>
<feColorMatrix type="matrix" values="0 0 0 0 0 0 0 0 0 0 0 0 0 0 0 0 0 0 0.1 0"/>
<feBlend mode="normal" in2="BackgroundImageFix" result="effect1_dropShadow_415_21"/>
<feBlend mode="normal" in="SourceGraphic" in2="effect1_dropShadow_415_21" result="shape"/>
</filter>
</defs>
</svg>
