<svg width="15" height="15" viewBox="0 0 15 15" fill="none" xmlns="http://www.w3.org/2000/svg">
<path d="M4.19998 13.2C3.86998 13.2 3.58748 13.0825 3.35248 12.8475C3.11748 12.6125 2.99998 12.33 2.99998 12C2.99998 11.67 3.11748 11.3875 3.35248 11.1525C3.58748 10.9175 3.86998 10.8 4.19998 10.8C4.52998 10.8 4.81248 10.9175 5.04748 11.1525C5.28248 11.3875 5.39998 11.67 5.39998 12C5.39998 12.33 5.28248 12.6125 5.04748 12.8475C4.81248 13.0825 4.52998 13.2 4.19998 13.2ZM10.2 13.2C9.86998 13.2 9.58748 13.0825 9.35248 12.8475C9.11748 12.6125 8.99998 12.33 8.99998 12C8.99998 11.67 9.11748 11.3875 9.35248 11.1525C9.58748 10.9175 9.86998 10.8 10.2 10.8C10.53 10.8 10.8125 10.9175 11.0475 11.1525C11.2825 11.3875 11.4 11.67 11.4 12C11.4 12.33 11.2825 12.6125 11.0475 12.8475C10.8125 13.0825 10.53 13.2 10.2 13.2ZM3.11998 2.4H11.97C12.2 2.4 12.375 2.5025 12.495 2.7075C12.615 2.9125 12.62 3.12 12.51 3.33L10.38 7.17C10.27 7.37 10.1225 7.525 9.93748 7.635C9.75248 7.745 9.54998 7.8 9.32998 7.8H4.85998L4.19998 9H10.8C10.97 9 11.1125 9.0575 11.2275 9.1725C11.3425 9.2875 11.4 9.43 11.4 9.6C11.4 9.77 11.3425 9.9125 11.2275 10.0275C11.1125 10.1425 10.97 10.2 10.8 10.2H4.19998C3.74998 10.2 3.40998 10.0025 3.17998 9.6075C2.94998 9.2125 2.93998 8.82 3.14998 8.43L3.95998 6.96L1.79998 2.4H1.19998C1.02998 2.4 0.887476 2.3425 0.772476 2.2275C0.657476 2.1125 0.599976 1.97 0.599976 1.8C0.599976 1.63 0.657476 1.4875 0.772476 1.3725C0.887476 1.2575 1.02998 1.2 1.19998 1.2H2.17498C2.28498 1.2 2.38998 1.23 2.48998 1.29C2.58998 1.35 2.66498 1.435 2.71498 1.545L3.11998 2.4Z" fill="#111928"/>
</svg>
