<svg width="27" height="27" viewBox="0 0 27 27" fill="none" xmlns="http://www.w3.org/2000/svg">
<g clip-path="url(#clip0_1_209)">
<path d="M1.11603 20.1966C0.799801 20.1966 0.53473 20.0896 0.320814 19.8757C0.106897 19.6618 -6.10352e-05 19.3967 -6.10352e-05 19.0805V18.4387C-6.10352e-05 17.6389 0.409171 16.9878 1.22763 16.4856C2.0461 15.9833 3.12498 15.7322 4.46428 15.7322C4.7061 15.7322 4.93862 15.7369 5.16184 15.7462C5.38506 15.7555 5.59897 15.7787 5.80359 15.8159C5.54317 16.2066 5.34785 16.6158 5.21764 17.0436C5.08743 17.4715 5.02233 17.9179 5.02233 18.3829V20.1966H1.11603ZM7.81254 20.1966C7.49632 20.1966 7.23125 20.0896 7.01733 19.8757C6.80342 19.6618 6.69646 19.3967 6.69646 19.0805V18.3829C6.69646 17.7877 6.85922 17.2436 7.18475 16.7506C7.51027 16.2577 7.97066 15.8252 8.5659 15.4532C9.16115 15.0812 9.87265 14.8021 10.7004 14.6161C11.5282 14.4301 12.4257 14.3371 13.393 14.3371C14.3789 14.3371 15.2857 14.4301 16.1134 14.6161C16.9412 14.8021 17.6527 15.0812 18.248 15.4532C18.8432 15.8252 19.2989 16.2577 19.6152 16.7506C19.9314 17.2436 20.0895 17.7877 20.0895 18.3829V19.0805C20.0895 19.3967 19.9825 19.6618 19.7686 19.8757C19.5547 20.0896 19.2896 20.1966 18.9734 20.1966H7.81254ZM21.7636 20.1966V18.3829C21.7636 17.8993 21.7032 17.4436 21.5823 17.0157C21.4613 16.5879 21.28 16.188 21.0382 15.8159C21.2428 15.7787 21.452 15.7555 21.666 15.7462C21.8799 15.7369 22.0984 15.7322 22.3217 15.7322C23.661 15.7322 24.7399 15.9787 25.5583 16.4716C26.3768 16.9646 26.786 17.6203 26.786 18.4387V19.0805C26.786 19.3967 26.6791 19.6618 26.4651 19.8757C26.2512 20.0896 25.9862 20.1966 25.6699 20.1966H21.7636ZM4.46428 14.6161C3.85044 14.6161 3.32495 14.3976 2.88781 13.9604C2.45068 13.5233 2.23211 12.9978 2.23211 12.384C2.23211 11.7515 2.45068 11.2214 2.88781 10.7935C3.32495 10.3657 3.85044 10.1518 4.46428 10.1518C5.09673 10.1518 5.62687 10.3657 6.05471 10.7935C6.48254 11.2214 6.69646 11.7515 6.69646 12.384C6.69646 12.9978 6.48254 13.5233 6.05471 13.9604C5.62687 14.3976 5.09673 14.6161 4.46428 14.6161ZM22.3217 14.6161C21.7078 14.6161 21.1823 14.3976 20.7452 13.9604C20.3081 13.5233 20.0895 12.9978 20.0895 12.384C20.0895 11.7515 20.3081 11.2214 20.7452 10.7935C21.1823 10.3657 21.7078 10.1518 22.3217 10.1518C22.9541 10.1518 23.4843 10.3657 23.9121 10.7935C24.3399 11.2214 24.5538 11.7515 24.5538 12.384C24.5538 12.9978 24.3399 13.5233 23.9121 13.9604C23.4843 14.3976 22.9541 14.6161 22.3217 14.6161ZM13.393 13.5C12.4629 13.5 11.6723 13.1745 11.0213 12.5235C10.3702 11.8724 10.0447 11.0819 10.0447 10.1518C10.0447 9.20311 10.3702 8.4079 11.0213 7.76615C11.6723 7.1244 12.4629 6.80353 13.393 6.80353C14.3416 6.80353 15.1369 7.1244 15.7786 7.76615C16.4204 8.4079 16.7412 9.20311 16.7412 10.1518C16.7412 11.0819 16.4204 11.8724 15.7786 12.5235C15.1369 13.1745 14.3416 13.5 13.393 13.5Z" fill="#434343"/>
</g>
<defs>
<clipPath id="clip0_1_209">
<rect width="26.7861" height="26.7861" fill="white" transform="translate(0 0.106964)"/>
</clipPath>
</defs>
</svg>
