<svg width="30" height="30" viewBox="0 0 30 30" fill="none" xmlns="http://www.w3.org/2000/svg">
<path d="M15.0313 26.25C14.6771 26.25 14.3802 26.1302 14.1406 25.8906C13.9011 25.651 13.7813 25.3542 13.7813 25V23.5625C12.8438 23.3542 12.0209 22.9896 11.3125 22.4688C10.6042 21.9479 10.0313 21.2188 9.59377 20.2812C9.44794 19.9896 9.44273 19.6823 9.57815 19.3594C9.71356 19.0365 9.95836 18.8021 10.3125 18.6562C10.6042 18.5312 10.9063 18.5365 11.2188 18.6719C11.5313 18.8073 11.7709 19.0312 11.9375 19.3438C12.2917 19.9688 12.7396 20.4427 13.2813 20.7656C13.8229 21.0885 14.4896 21.25 15.2813 21.25C16.1354 21.25 16.8594 21.0573 17.4531 20.6719C18.0469 20.2865 18.3438 19.6875 18.3438 18.875C18.3438 18.1458 18.1146 17.5677 17.6563 17.1406C17.1979 16.7135 16.1354 16.2292 14.4688 15.6875C12.6771 15.125 11.4479 14.4531 10.7813 13.6719C10.1146 12.8906 9.78127 11.9375 9.78127 10.8125C9.78127 9.45833 10.2188 8.40625 11.0938 7.65625C11.9688 6.90625 12.8646 6.47917 13.7813 6.375V5C13.7813 4.64583 13.9011 4.34896 14.1406 4.10938C14.3802 3.86979 14.6771 3.75 15.0313 3.75C15.3854 3.75 15.6823 3.86979 15.9219 4.10938C16.1615 4.34896 16.2813 4.64583 16.2813 5V6.375C17.0729 6.5 17.7604 6.75521 18.3438 7.14062C18.9271 7.52604 19.4063 8 19.7813 8.5625C19.9688 8.83333 20.0052 9.13542 19.8906 9.46875C19.7761 9.80208 19.5417 10.0417 19.1875 10.1875C18.8959 10.3125 18.5938 10.3177 18.2813 10.2031C17.9688 10.0885 17.6771 9.88542 17.4063 9.59375C17.1354 9.30208 16.8177 9.07812 16.4531 8.92188C16.0886 8.76562 15.6354 8.6875 15.0938 8.6875C14.1771 8.6875 13.4792 8.89062 13 9.29688C12.5209 9.70312 12.2813 10.2083 12.2813 10.8125C12.2813 11.5 12.5938 12.0417 13.2188 12.4375C13.8438 12.8333 14.9271 13.25 16.4688 13.6875C17.9063 14.1042 18.9948 14.7656 19.7344 15.6719C20.474 16.5781 20.8438 17.625 20.8438 18.8125C20.8438 20.2917 20.4063 21.4167 19.5313 22.1875C18.6563 22.9583 17.5729 23.4375 16.2813 23.625V25C16.2813 25.3542 16.1615 25.651 15.9219 25.8906C15.6823 26.1302 15.3854 26.25 15.0313 26.25Z" fill="#00BF00"/>
</svg>
