<svg width="29" height="30" viewBox="0 0 29 30" fill="none" xmlns="http://www.w3.org/2000/svg">
<path d="M10.875 18.625H7.12921C6.64588 18.625 6.28841 18.4085 6.05682 17.9755C5.82522 17.5425 5.85039 17.1247 6.13234 16.7219L15.1646 3.73231C15.366 3.45036 15.6278 3.25401 15.95 3.14324C16.2723 3.03248 16.6046 3.03751 16.9469 3.15835C17.2893 3.27918 17.541 3.49064 17.7021 3.79272C17.8632 4.09481 17.9237 4.41703 17.8834 4.75939L16.9167 12.5833H21.599C22.1226 12.5833 22.4901 12.8149 22.7016 13.2781C22.9131 13.7413 22.8476 14.1743 22.5053 14.5771L12.5667 26.4792C12.3452 26.741 12.0733 26.9122 11.7511 26.9927C11.4289 27.0733 11.1167 27.0431 10.8146 26.9021C10.5125 26.7611 10.2759 26.5446 10.1047 26.2526C9.93355 25.9606 9.8681 25.6434 9.90838 25.3011L10.875 18.625Z" fill="#0055FF"/>
</svg>
