<svg width="21" height="21" viewBox="0 0 21 21" fill="none" xmlns="http://www.w3.org/2000/svg">
<path d="M3.79657 17.1714C3.33581 17.1714 2.94138 17.0073 2.61326 16.6792C2.28515 16.3511 2.12109 15.9566 2.12109 15.4959V5.44305C2.12109 4.98229 2.28515 4.58786 2.61326 4.25975C2.94138 3.93163 3.33581 3.76758 3.79657 3.76758H17.2003C17.6611 3.76758 18.0555 3.93163 18.3836 4.25975C18.7118 4.58786 18.8758 4.98229 18.8758 5.44305V15.4959C18.8758 15.9566 18.7118 16.3511 18.3836 16.6792C18.0555 17.0073 17.6611 17.1714 17.2003 17.1714H3.79657ZM10.4985 11.1606C10.5683 11.1606 10.6416 11.1501 10.7184 11.1292C10.7951 11.1082 10.8685 11.0768 10.9383 11.0349L16.8652 7.32796C16.9769 7.25814 17.0607 7.17088 17.1166 7.06616C17.1724 6.96145 17.2003 6.84626 17.2003 6.7206C17.2003 6.44135 17.0817 6.23192 16.8443 6.09229C16.6069 5.95267 16.3626 5.95965 16.1113 6.11324L10.4985 9.63173L4.88562 6.11324C4.6343 5.95965 4.38996 5.95616 4.1526 6.10277C3.91524 6.24937 3.79657 6.45531 3.79657 6.7206C3.79657 6.86022 3.82449 6.98239 3.88034 7.08711C3.93619 7.19182 4.01996 7.27211 4.13166 7.32796L10.0586 11.0349C10.1285 11.0768 10.2018 11.1082 10.2785 11.1292C10.3553 11.1501 10.4286 11.1606 10.4985 11.1606Z" fill="#434343"/>
</svg>
