<svg width="24" height="24" viewBox="0 0 24 24" fill="none" xmlns="http://www.w3.org/2000/svg">
<g clip-path="url(#clip0_191_1804)">
<path d="M12.6 17.9999L9.3 14.6999C9.2 14.5999 9.125 14.4874 9.075 14.3624C9.025 14.2374 9 14.1082 9 13.9749V9.9999C9 9.71656 9.09583 9.47906 9.2875 9.28739C9.47917 9.09573 9.71667 8.9999 10 8.9999C10.2833 8.9999 10.5208 9.09573 10.7125 9.28739C10.9042 9.47906 11 9.71656 11 9.9999V13.5999L14 16.5999C14.1833 16.7832 14.275 17.0166 14.275 17.2999C14.275 17.5832 14.1833 17.8166 14 17.9999C13.8167 18.1832 13.5833 18.2749 13.3 18.2749C13.0167 18.2749 12.7833 18.1832 12.6 17.9999ZM22.825 11.8249C22.5417 11.8749 22.2917 11.8166 22.075 11.6499C21.8583 11.4832 21.7083 11.2582 21.625 10.9749C21.125 9.00823 20.1958 7.28739 18.8375 5.81239C17.4792 4.33739 15.85 3.27489 13.95 2.62489C13.6833 2.54156 13.4833 2.37906 13.35 2.13739C13.2167 1.89573 13.1833 1.64156 13.25 1.37489C13.3333 1.09156 13.5083 0.891562 13.775 0.774895C14.0417 0.658228 14.3167 0.649895 14.6 0.749895C16.8333 1.51656 18.7458 2.77073 20.3375 4.51239C21.9292 6.25406 23.0167 8.28323 23.6 10.5999C23.6833 10.8832 23.6458 11.1457 23.4875 11.3874C23.3292 11.6291 23.1083 11.7749 22.825 11.8249ZM18.75 11.7499C18.4833 11.8166 18.2292 11.7832 17.9875 11.6499C17.7458 11.5166 17.575 11.3166 17.475 11.0499C17.1417 10.1832 16.6625 9.39989 16.0375 8.69989C15.4125 7.9999 14.6917 7.42489 13.875 6.9749C13.6417 6.84156 13.475 6.64573 13.375 6.38739C13.275 6.12906 13.275 5.87489 13.375 5.62489C13.475 5.35823 13.6542 5.17489 13.9125 5.07489C14.1708 4.9749 14.425 4.99156 14.675 5.12489C15.775 5.70823 16.7292 6.46656 17.5375 7.39989C18.3458 8.33323 18.9667 9.38323 19.4 10.5499C19.5 10.8166 19.4875 11.0666 19.3625 11.2999C19.2375 11.5332 19.0333 11.6832 18.75 11.7499ZM10.025 23.9999C8.64167 23.9999 7.34167 23.7374 6.125 23.2124C4.90833 22.6874 3.84583 21.9707 2.9375 21.0624C2.02917 20.1541 1.3125 19.0916 0.7875 17.8749C0.2625 16.6582 0 15.3666 0 13.9999C0 12.6166 0.2625 11.3166 0.7875 10.0999C1.3125 8.88323 2.02917 7.82073 2.9375 6.9124C3.84583 6.00406 4.90833 5.2874 6.125 4.76239C7.34167 4.23739 8.64167 3.97489 10.025 3.97489C10.3083 3.97489 10.5458 4.07073 10.7375 4.26239C10.9292 4.45406 11.025 4.69156 11.025 4.9749C11.025 5.25823 10.9292 5.49573 10.7375 5.68739C10.5458 5.87906 10.3083 5.9749 10.025 5.9749C7.79167 5.9749 5.89583 6.75406 4.3375 8.31239C2.77917 9.87073 2 11.7666 2 13.9999C2 16.2166 2.77917 18.1041 4.3375 19.6624C5.89583 21.2207 7.79167 21.9999 10.025 21.9999C12.2417 21.9999 14.1292 21.2207 15.6875 19.6624C17.2458 18.1041 18.025 16.2166 18.025 13.9999C18.025 13.7166 18.1208 13.4791 18.3125 13.2874C18.5042 13.0957 18.7417 12.9999 19.025 12.9999C19.3083 12.9999 19.5458 13.0957 19.7375 13.2874C19.9292 13.4791 20.025 13.7166 20.025 13.9999C20.025 15.3666 19.7625 16.6582 19.2375 17.8749C18.7125 19.0916 17.9958 20.1541 17.0875 21.0624C16.1792 21.9707 15.1208 22.6874 13.9125 23.2124C12.7042 23.7374 11.4083 23.9999 10.025 23.9999Z" fill="#111928"/>
</g>
<defs>
<clipPath id="clip0_191_1804">
<rect width="24" height="24" fill="white"/>
</clipPath>
</defs>
</svg>
