<svg width="24" height="24" viewBox="0 0 24 24" fill="none" xmlns="http://www.w3.org/2000/svg">
<g clip-path="url(#clip0_307_1469)">
<path d="M12.6 18L9.3 14.7C9.2 14.6 9.125 14.4875 9.075 14.3625C9.025 14.2375 9 14.1083 9 13.975V9.99999C9 9.71665 9.09583 9.47915 9.2875 9.28749C9.47917 9.09582 9.71667 8.99999 10 8.99999C10.2833 8.99999 10.5208 9.09582 10.7125 9.28749C10.9042 9.47915 11 9.71665 11 9.99999V13.6L14 16.6C14.1833 16.7833 14.275 17.0167 14.275 17.3C14.275 17.5833 14.1833 17.8167 14 18C13.8167 18.1833 13.5833 18.275 13.3 18.275C13.0167 18.275 12.7833 18.1833 12.6 18ZM22.825 11.825C22.5417 11.875 22.2917 11.8167 22.075 11.65C21.8583 11.4833 21.7083 11.2583 21.625 10.975C21.125 9.00832 20.1958 7.28749 18.8375 5.81249C17.4792 4.33749 15.85 3.27499 13.95 2.62499C13.6833 2.54165 13.4833 2.37915 13.35 2.13749C13.2167 1.89582 13.1833 1.64165 13.25 1.37499C13.3333 1.09165 13.5083 0.891653 13.775 0.774986C14.0417 0.65832 14.3167 0.649986 14.6 0.749986C16.8333 1.51665 18.7458 2.77082 20.3375 4.51249C21.9292 6.25415 23.0167 8.28332 23.6 10.6C23.6833 10.8833 23.6458 11.1458 23.4875 11.3875C23.3292 11.6292 23.1083 11.775 22.825 11.825ZM18.75 11.75C18.4833 11.8167 18.2292 11.7833 17.9875 11.65C17.7458 11.5167 17.575 11.3167 17.475 11.05C17.1417 10.1833 16.6625 9.39999 16.0375 8.69999C15.4125 7.99999 14.6917 7.42499 13.875 6.97499C13.6417 6.84165 13.475 6.64582 13.375 6.38749C13.275 6.12915 13.275 5.87499 13.375 5.62499C13.475 5.35832 13.6542 5.17499 13.9125 5.07499C14.1708 4.97499 14.425 4.99165 14.675 5.12499C15.775 5.70832 16.7292 6.46665 17.5375 7.39999C18.3458 8.33332 18.9667 9.38332 19.4 10.55C19.5 10.8167 19.4875 11.0667 19.3625 11.3C19.2375 11.5333 19.0333 11.6833 18.75 11.75ZM10.025 24C8.64167 24 7.34167 23.7375 6.125 23.2125C4.90833 22.6875 3.84583 21.9708 2.9375 21.0625C2.02917 20.1542 1.3125 19.0917 0.7875 17.875C0.2625 16.6583 0 15.3667 0 14C0 12.6167 0.2625 11.3167 0.7875 10.1C1.3125 8.88332 2.02917 7.82082 2.9375 6.91249C3.84583 6.00415 4.90833 5.28749 6.125 4.76249C7.34167 4.23749 8.64167 3.97499 10.025 3.97499C10.3083 3.97499 10.5458 4.07082 10.7375 4.26249C10.9292 4.45415 11.025 4.69165 11.025 4.97499C11.025 5.25832 10.9292 5.49582 10.7375 5.68749C10.5458 5.87915 10.3083 5.97499 10.025 5.97499C7.79167 5.97499 5.89583 6.75415 4.3375 8.31249C2.77917 9.87082 2 11.7667 2 14C2 16.2167 2.77917 18.1042 4.3375 19.6625C5.89583 21.2208 7.79167 22 10.025 22C12.2417 22 14.1292 21.2208 15.6875 19.6625C17.2458 18.1042 18.025 16.2167 18.025 14C18.025 13.7167 18.1208 13.4792 18.3125 13.2875C18.5042 13.0958 18.7417 13 19.025 13C19.3083 13 19.5458 13.0958 19.7375 13.2875C19.9292 13.4792 20.025 13.7167 20.025 14C20.025 15.3667 19.7625 16.6583 19.2375 17.875C18.7125 19.0917 17.9958 20.1542 17.0875 21.0625C16.1792 21.9708 15.1208 22.6875 13.9125 23.2125C12.7042 23.7375 11.4083 24 10.025 24Z" fill="#434343"/>
</g>
<defs>
<clipPath id="clip0_307_1469">
<rect width="24" height="24" fill="white"/>
</clipPath>
</defs>
</svg>
