<svg width="25" height="24" viewBox="0 0 25 24" fill="none" xmlns="http://www.w3.org/2000/svg">
<path d="M11.2003 20C10.9169 20 10.6794 19.9042 10.4878 19.7125C10.2961 19.5208 10.2003 19.2833 10.2003 19V13L4.40028 5.6C4.15028 5.26667 4.11278 4.91667 4.28778 4.55C4.46278 4.18333 4.76694 4 5.20028 4H19.2003C19.6336 4 19.9378 4.18333 20.1128 4.55C20.2878 4.91667 20.2503 5.26667 20.0003 5.6L14.2003 13V19C14.2003 19.2833 14.1044 19.5208 13.9128 19.7125C13.7211 19.9042 13.4836 20 13.2003 20H11.2003Z" fill="#0055FF"/>
</svg>
