<svg width="33" height="34" viewBox="0 0 33 34" fill="none" xmlns="http://www.w3.org/2000/svg">
<path d="M11 25.1074C10.6104 25.1074 10.2839 24.9757 10.0203 24.7121C9.75677 24.4486 9.625 24.122 9.625 23.7324C9.625 23.3428 9.75677 23.0163 10.0203 22.7527C10.2839 22.4892 10.6104 22.3574 11 22.3574C11.3896 22.3574 11.7161 22.4892 11.9797 22.7527C12.2432 23.0163 12.375 23.3428 12.375 23.7324C12.375 24.122 12.2432 24.4486 11.9797 24.7121C11.7161 24.9757 11.3896 25.1074 11 25.1074ZM16.5 25.1074C16.1104 25.1074 15.7839 24.9757 15.5203 24.7121C15.2568 24.4486 15.125 24.122 15.125 23.7324C15.125 23.3428 15.2568 23.0163 15.5203 22.7527C15.7839 22.4892 16.1104 22.3574 16.5 22.3574C16.8896 22.3574 17.2161 22.4892 17.4797 22.7527C17.7432 23.0163 17.875 23.3428 17.875 23.7324C17.875 24.122 17.7432 24.4486 17.4797 24.7121C17.2161 24.9757 16.8896 25.1074 16.5 25.1074ZM22 25.1074C21.6104 25.1074 21.2839 24.9757 21.0203 24.7121C20.7568 24.4486 20.625 24.122 20.625 23.7324C20.625 23.3428 20.7568 23.0163 21.0203 22.7527C21.2839 22.4892 21.6104 22.3574 22 22.3574C22.3896 22.3574 22.7161 22.4892 22.9797 22.7527C23.2432 23.0163 23.375 23.3428 23.375 23.7324C23.375 24.122 23.2432 24.4486 22.9797 24.7121C22.7161 24.9757 22.3896 25.1074 22 25.1074ZM8.25 19.6074C7.86042 19.6074 7.53385 19.4757 7.27031 19.2121C7.00677 18.9486 6.875 18.622 6.875 18.2324V16.8574C6.875 14.4283 7.65417 12.3199 9.2125 10.5324C10.7708 8.74492 12.7417 7.69076 15.125 7.36992V5.85742C15.125 5.46784 15.2568 5.14128 15.5203 4.87773C15.7839 4.61419 16.1104 4.48242 16.5 4.48242C16.8896 4.48242 17.2161 4.61419 17.4797 4.87773C17.7432 5.14128 17.875 5.46784 17.875 5.85742V7.36992C20.2583 7.69076 22.2292 8.74492 23.7875 10.5324C25.3458 12.3199 26.125 14.4283 26.125 16.8574V18.2324C26.125 18.622 25.9932 18.9486 25.7297 19.2121C25.4661 19.4757 25.1396 19.6074 24.75 19.6074H8.25ZM11 29.2324C10.6104 29.2324 10.2839 29.1007 10.0203 28.8371C9.75677 28.5736 9.625 28.247 9.625 27.8574C9.625 27.4678 9.75677 27.1413 10.0203 26.8777C10.2839 26.6142 10.6104 26.4824 11 26.4824C11.3896 26.4824 11.7161 26.6142 11.9797 26.8777C12.2432 27.1413 12.375 27.4678 12.375 27.8574C12.375 28.247 12.2432 28.5736 11.9797 28.8371C11.7161 29.1007 11.3896 29.2324 11 29.2324ZM16.5 29.2324C16.1104 29.2324 15.7839 29.1007 15.5203 28.8371C15.2568 28.5736 15.125 28.247 15.125 27.8574C15.125 27.4678 15.2568 27.1413 15.5203 26.8777C15.7839 26.6142 16.1104 26.4824 16.5 26.4824C16.8896 26.4824 17.2161 26.6142 17.4797 26.8777C17.7432 27.1413 17.875 27.4678 17.875 27.8574C17.875 28.247 17.7432 28.5736 17.4797 28.8371C17.2161 29.1007 16.8896 29.2324 16.5 29.2324ZM22 29.2324C21.6104 29.2324 21.2839 29.1007 21.0203 28.8371C20.7568 28.5736 20.625 28.247 20.625 27.8574C20.625 27.4678 20.7568 27.1413 21.0203 26.8777C21.2839 26.6142 21.6104 26.4824 22 26.4824C22.3896 26.4824 22.7161 26.6142 22.9797 26.8777C23.2432 27.1413 23.375 27.4678 23.375 27.8574C23.375 28.247 23.2432 28.5736 22.9797 28.8371C22.7161 29.1007 22.3896 29.2324 22 29.2324Z" fill="#9333EA"/>
</svg>
