<svg width="33" height="34" viewBox="0 0 33 34" fill="none" xmlns="http://www.w3.org/2000/svg">
<path d="M12.375 18.5908C12.7646 18.5908 13.0911 18.4591 13.3547 18.1955C13.6182 17.932 13.75 17.6054 13.75 17.2158C13.75 16.8262 13.6182 16.4997 13.3547 16.2361C13.0911 15.9726 12.7646 15.8408 12.375 15.8408C11.9854 15.8408 11.6589 15.9726 11.3953 16.2361C11.1318 16.4997 11 16.8262 11 17.2158C11 17.6054 11.1318 17.932 11.3953 18.1955C11.6589 18.4591 11.9854 18.5908 12.375 18.5908ZM20.625 18.5908C21.0146 18.5908 21.3411 18.4591 21.6047 18.1955C21.8682 17.932 22 17.6054 22 17.2158C22 16.8262 21.8682 16.4997 21.6047 16.2361C21.3411 15.9726 21.0146 15.8408 20.625 15.8408C20.2354 15.8408 19.9089 15.9726 19.6453 16.2361C19.3818 16.4997 19.25 16.8262 19.25 17.2158C19.25 17.6054 19.3818 17.932 19.6453 18.1955C19.9089 18.4591 20.2354 18.5908 20.625 18.5908ZM5.5 29.5908C5.11042 29.5908 4.78385 29.459 4.52031 29.1955C4.25677 28.932 4.125 28.6054 4.125 28.2158C4.125 27.8492 4.29115 27.5913 4.62344 27.4424C4.95573 27.2934 5.24792 27.0929 5.5 26.8408V7.59082C5.5 6.83457 5.76927 6.18717 6.30781 5.64863C6.84635 5.11009 7.49375 4.84082 8.25 4.84082H15.8125V26.8408H17.1875V4.84082H24.75C25.5063 4.84082 26.1536 5.11009 26.6922 5.64863C27.2307 6.18717 27.5 6.83457 27.5 7.59082V26.8408C27.8896 26.8408 28.2161 26.9726 28.4797 27.2361C28.7432 27.4997 28.875 27.8262 28.875 28.2158C28.875 28.6054 28.7432 28.932 28.4797 29.1955C28.2161 29.459 27.8896 29.5908 27.5 29.5908H5.5Z" fill="#D30000"/>
</svg>
