<svg width="34" height="34" viewBox="0 0 34 34" fill="none" xmlns="http://www.w3.org/2000/svg">
<path d="M10.125 30.75C9.73542 30.75 9.40885 30.6182 9.14531 30.3547C8.88177 30.0911 8.75 29.7646 8.75 29.375V18.1688C7.5125 17.8479 6.51562 17.1948 5.75937 16.2094C5.00313 15.224 4.625 14.1125 4.625 12.875V4.625C4.625 4.23542 4.75677 3.90885 5.02031 3.64531C5.28385 3.38177 5.61042 3.25 6 3.25C6.38958 3.25 6.71615 3.38177 6.97969 3.64531C7.24323 3.90885 7.375 4.23542 7.375 4.625V11.5H8.75V4.625C8.75 4.23542 8.88177 3.90885 9.14531 3.64531C9.40885 3.38177 9.73542 3.25 10.125 3.25C10.5146 3.25 10.8411 3.38177 11.1047 3.64531C11.3682 3.90885 11.5 4.23542 11.5 4.625V11.5H12.875V4.625C12.875 4.23542 13.0068 3.90885 13.2703 3.64531C13.5339 3.38177 13.8604 3.25 14.25 3.25C14.6396 3.25 14.9661 3.38177 15.2297 3.64531C15.4932 3.90885 15.625 4.23542 15.625 4.625V12.875C15.625 14.1125 15.2469 15.224 14.4906 16.2094C13.7344 17.1948 12.7375 17.8479 11.5 18.1688V29.375C11.5 29.7646 11.3682 30.0911 11.1047 30.3547C10.8411 30.6182 10.5146 30.75 10.125 30.75ZM23.875 30.75C23.4854 30.75 23.1589 30.6182 22.8953 30.3547C22.6318 30.0911 22.5 29.7646 22.5 29.375V17.6531C21.2625 17.2406 20.2656 16.3755 19.5094 15.0578C18.7531 13.7401 18.375 12.2448 18.375 10.5719C18.375 8.53229 18.9135 6.80208 19.9906 5.38125C21.0677 3.96042 22.3625 3.25 23.875 3.25C25.3875 3.25 26.6823 3.96615 27.7594 5.39844C28.8365 6.83073 29.375 8.56667 29.375 10.6063C29.375 12.2792 28.9969 13.7688 28.2406 15.075C27.4844 16.3813 26.4875 17.2406 25.25 17.6531V29.375C25.25 29.7646 25.1182 30.0911 24.8547 30.3547C24.5911 30.6182 24.2646 30.75 23.875 30.75Z" fill="#EFCB00"/>
</svg>
