<svg width="118" height="41" viewBox="0 0 118 41" fill="none" xmlns="http://www.w3.org/2000/svg">
<path d="M25.6605 1.55386L21.7275 0.5L18.4131 12.8696L15.4208 1.70224L11.4877 2.7561L14.7207 14.8216L6.66807 6.76898L3.78888 9.64817L12.6216 18.481L1.62185 15.5336L0.567993 19.4666L12.5866 22.687C12.449 22.0935 12.3762 21.4751 12.3762 20.8397C12.3762 16.3421 16.0222 12.6961 20.5198 12.6961C25.0174 12.6961 28.6634 16.3421 28.6634 20.8397C28.6634 21.471 28.5915 22.0856 28.4556 22.6756L39.3783 25.6023L40.4321 21.6693L28.3657 18.4361L39.3662 15.4885L38.3123 11.5555L26.2464 14.7885L34.299 6.73592L31.4198 3.85673L22.7096 12.567L25.6605 1.55386Z" fill="#0055FF"/>
<path d="M28.4448 22.7214C28.1076 24.147 27.3957 25.4277 26.4189 26.4538L34.3319 34.3669L37.2111 31.4877L28.4448 22.7214Z" fill="#0055FF"/>
<path d="M26.339 26.5366C25.3504 27.5463 24.1011 28.2998 22.7001 28.6881L25.5795 39.4341L29.5125 38.3802L26.339 26.5366Z" fill="#0055FF"/>
<path d="M22.5532 28.7274C21.9032 28.8945 21.2219 28.9833 20.5198 28.9833C19.7676 28.9833 19.0392 28.8813 18.3477 28.6904L15.4657 39.4462L19.3987 40.5L22.5532 28.7274Z" fill="#0055FF"/>
<path d="M18.2088 28.6506C16.8292 28.243 15.6021 27.4799 14.6337 26.4673L6.70117 34.3998L9.58036 37.279L18.2088 28.6506Z" fill="#0055FF"/>
<path d="M14.5674 26.3973C13.6156 25.3783 12.9223 24.1147 12.5923 22.7111L1.63391 25.6474L2.68776 29.5804L14.5674 26.3973Z" fill="#0055FF"/>
<path d="M46.2378 24.4829H49.79C49.9609 25.9355 51.4746 26.8877 53.4277 26.8877C55.3931 26.8877 56.7358 25.9478 56.7358 24.6538C56.7358 23.5063 55.8936 22.8716 53.7695 22.3955L51.4746 21.895C48.2275 21.1992 46.6284 19.5513 46.6284 16.9756C46.6284 13.7285 49.436 11.5801 53.3667 11.5801C57.4683 11.5801 60.0439 13.6919 60.105 16.8779H56.6504C56.5283 15.3887 55.2222 14.4854 53.3789 14.4854C51.5601 14.4854 50.3394 15.3521 50.3394 16.6582C50.3394 17.7446 51.1938 18.355 53.2202 18.8188L55.3564 19.2705C58.8843 20.0273 60.4224 21.541 60.4224 24.2266C60.4224 27.6445 57.6514 29.8052 53.2812 29.8052C49.0454 29.8052 46.3477 27.791 46.2378 24.4829ZM68.3794 11.8853V22.9082C68.3794 25.1665 69.71 26.6436 72.0781 26.6436C74.4341 26.6436 75.7646 25.1665 75.7646 22.9082V11.8853H79.4512V23.2744C79.4512 27.1562 76.5825 29.8052 72.0781 29.8052C67.5615 29.8052 64.6929 27.1562 64.6929 23.2744V11.8853H68.3794ZM92.1934 29.5H84.3931V11.8853H92.0591C95.3672 11.8853 97.4424 13.582 97.4424 16.2798C97.4424 18.2085 96.002 19.8198 94.1343 20.1006V20.1982C96.5269 20.3813 98.2847 22.127 98.2847 24.4585C98.2847 27.5591 95.9531 29.5 92.1934 29.5ZM88.0796 14.6318V19.2095H90.7285C92.6938 19.2095 93.8169 18.3428 93.8169 16.8535C93.8169 15.4375 92.8281 14.6318 91.1069 14.6318H88.0796ZM88.0796 26.7534H91.2534C93.3774 26.7534 94.5249 25.8501 94.5249 24.1655C94.5249 22.5176 93.3408 21.6387 91.168 21.6387H88.0796V26.7534ZM101.725 24.4829H105.277C105.448 25.9355 106.962 26.8877 108.915 26.8877C110.88 26.8877 112.223 25.9478 112.223 24.6538C112.223 23.5063 111.381 22.8716 109.257 22.3955L106.962 21.895C103.715 21.1992 102.116 19.5513 102.116 16.9756C102.116 13.7285 104.923 11.5801 108.854 11.5801C112.956 11.5801 115.531 13.6919 115.592 16.8779H112.138C112.016 15.3887 110.709 14.4854 108.866 14.4854C107.047 14.4854 105.827 15.3521 105.827 16.6582C105.827 17.7446 106.681 18.355 108.708 18.8188L110.844 19.2705C114.372 20.0273 115.91 21.541 115.91 24.2266C115.91 27.6445 113.139 29.8052 108.769 29.8052C104.533 29.8052 101.835 27.791 101.725 24.4829Z" fill="#111928"/>
</svg>
