<svg width="16" height="16" viewBox="0 0 16 16" fill="none" xmlns="http://www.w3.org/2000/svg">
<path d="M8.01831 6.40765L5.75269 8.67328C5.72144 8.70453 5.698 8.73838 5.68237 8.77484C5.66675 8.8113 5.65894 8.85036 5.65894 8.89203C5.65894 8.97536 5.68758 9.04828 5.74487 9.11078C5.80216 9.17328 5.87769 9.20453 5.97144 9.20453H10.7214C10.8152 9.20453 10.8907 9.17328 10.948 9.11078C11.0053 9.04828 11.0339 8.97536 11.0339 8.89203C11.0339 8.8712 11.0027 8.79828 10.9402 8.67328L8.67456 6.40765C8.62248 6.35557 8.57039 6.31911 8.51831 6.29828C8.46623 6.27745 8.40894 6.26703 8.34644 6.26703C8.28394 6.26703 8.22664 6.27745 8.17456 6.29828C8.12248 6.31911 8.07039 6.35557 8.01831 6.40765Z" fill="#0A7600"/>
</svg>
