<svg width="21" height="21" viewBox="0 0 21 21" fill="none" xmlns="http://www.w3.org/2000/svg">
<path d="M15.5506 18.5365C15.4527 18.5365 15.3583 18.526 15.2674 18.5051C15.1764 18.4841 15.089 18.4596 15.0051 18.4316C14.138 18.082 13.4527 17.5016 12.9493 16.6904C12.4458 15.8793 12.194 14.9912 12.194 14.0262V12.4109C12.194 12.257 12.2325 12.1102 12.3094 11.9703C12.3863 11.8305 12.5017 11.7256 12.6556 11.6557L15.173 10.397C15.2848 10.327 15.4107 10.2921 15.5506 10.2921C15.6904 10.2921 15.8163 10.327 15.9282 10.397L18.4456 11.6557C18.5994 11.7256 18.7148 11.8305 18.7917 11.9703C18.8686 12.1102 18.9071 12.257 18.9071 12.4109V14.0262C18.9071 14.9912 18.6553 15.8793 18.1519 16.6904C17.6484 17.5016 16.9631 18.082 16.096 18.4316C16.0121 18.4596 15.9247 18.4841 15.8338 18.5051C15.7429 18.526 15.6485 18.5365 15.5506 18.5365ZM5.481 16.9212C5.01947 16.9212 4.62438 16.7569 4.29572 16.4282C3.96706 16.0996 3.80273 15.7045 3.80273 15.2429V14.5716C3.80273 14.0961 3.92511 13.6591 4.16985 13.2605C4.4146 12.8619 4.73976 12.5577 5.14534 12.3479C5.84462 11.9983 6.56487 11.7186 7.3061 11.5088C8.04734 11.299 8.80255 11.1592 9.57176 11.0892C9.83748 11.0613 10.0612 11.1382 10.2431 11.32C10.4249 11.5018 10.5158 11.7256 10.5158 11.9913V14.0262C10.5158 14.3339 10.5368 14.6381 10.5787 14.9388C10.6207 15.2394 10.6836 15.5366 10.7675 15.8303C10.8374 16.11 10.7955 16.3618 10.6416 16.5856C10.4878 16.8093 10.278 16.9212 10.0123 16.9212H5.481ZM10.5158 10.2082C9.59273 10.2082 8.80255 9.8795 8.14523 9.22218C7.48792 8.56486 7.15926 7.77468 7.15926 6.85164C7.15926 5.9286 7.48792 5.13841 8.14523 4.4811C8.80255 3.82378 9.59273 3.49512 10.5158 3.49512C11.4388 3.49512 12.229 3.82378 12.8863 4.4811C13.5436 5.13841 13.8723 5.9286 13.8723 6.85164C13.8723 7.77468 13.5436 8.56486 12.8863 9.22218C12.229 9.8795 11.4388 10.2082 10.5158 10.2082Z" fill="#434343"/>
</svg>
