<svg width="24" height="24" viewBox="0 0 24 24" fill="none" xmlns="http://www.w3.org/2000/svg">
<path d="M17 22C15.6167 22 14.4375 21.5125 13.4625 20.5375C12.4875 19.5625 12 18.3833 12 17C12 15.6167 12.4875 14.4375 13.4625 13.4625C14.4375 12.4875 15.6167 12 17 12C18.3833 12 19.5625 12.4875 20.5375 13.4625C21.5125 14.4375 22 15.6167 22 17C22 18.3833 21.5125 19.5625 20.5375 20.5375C19.5625 21.5125 18.3833 22 17 22ZM7 8.00001H15C15.2833 8.00001 15.5208 7.90417 15.7125 7.71251C15.9042 7.52084 16 7.28334 16 7.00001C16 6.71667 15.9042 6.47917 15.7125 6.28751C15.5208 6.09584 15.2833 6.00001 15 6.00001H7C6.71667 6.00001 6.47917 6.09584 6.2875 6.28751C6.09583 6.47917 6 6.71667 6 7.00001C6 7.28334 6.09583 7.52084 6.2875 7.71251C6.47917 7.90417 6.71667 8.00001 7 8.00001ZM4 20C3.45 20 2.97917 19.8042 2.5875 19.4125C2.19583 19.0208 2 18.55 2 18V4.00001C2 3.45001 2.19583 2.97917 2.5875 2.58751C2.97917 2.19584 3.45 2.00001 4 2.00001H18C18.55 2.00001 19.0208 2.19584 19.4125 2.58751C19.8042 2.97917 20 3.45001 20 4.00001V9.45001C20 9.75001 19.875 9.98334 19.625 10.15C19.375 10.3167 19.1083 10.35 18.825 10.25C18.5417 10.1667 18.2458 10.1042 17.9375 10.0625C17.6292 10.0208 17.3167 10 17 10C16.8167 10 16.6458 10.0042 16.4875 10.0125C16.3292 10.0208 16.1667 10.0417 16 10.075C15.85 10.0417 15.6833 10.0208 15.5 10.0125C15.3167 10.0042 15.15 10 15 10H7C6.71667 10 6.47917 10.0958 6.2875 10.2875C6.09583 10.4792 6 10.7167 6 11C6 11.2833 6.09583 11.5208 6.2875 11.7125C6.47917 11.9042 6.71667 12 7 12H12.125C11.825 12.2833 11.5542 12.5917 11.3125 12.925C11.0708 13.2583 10.8583 13.6167 10.675 14H7C6.71667 14 6.47917 14.0958 6.2875 14.2875C6.09583 14.4792 6 14.7167 6 15C6 15.2833 6.09583 15.5208 6.2875 15.7125C6.47917 15.9042 6.71667 16 7 16H10.075C10.0417 16.1667 10.0208 16.3292 10.0125 16.4875C10.0042 16.6458 10 16.8167 10 17C10 17.3333 10.0167 17.65 10.05 17.95C10.0833 18.25 10.1417 18.5417 10.225 18.825C10.3083 19.1083 10.2667 19.375 10.1 19.625C9.93333 19.875 9.70833 20 9.425 20H4ZM17 15.5C17.4167 15.5 17.7708 16.8542 18.0625 16.5625C18.3542 16.2708 17 16.9167 17 16.5C17 16.0833 15.7917 16.7917 15.5 16.5C15.2083 16.2083 16.5 14 17 14C16.5833 14 18.7917 16.7083 18.5 17C18.2083 17.2917 17 16.0833 17 16.5C17 16.9167 15.7083 15.7083 16 16C16.2917 16.2917 16.5833 15.5 17 15.5ZM17 20C17.4167 20 17.8083 19.9208 18.175 19.7625C18.5417 19.6042 18.8667 19.375 19.15 19.075C19.2333 18.975 19.2667 18.8625 19.25 18.7375C19.2333 18.6125 21.475 19.125 20.5 18.5C21.7897 18.825 19.1667 20.075 18.825 20C18.4833 19.925 17.35 20.5375 17 20.5375C16.65 20.5375 16.3417 19.925 16 20C15.6583 20.075 14.3167 19.85 14 20C13.8667 20.05 14.7667 18.5917 14.75 18.725C14.7333 18.8583 14.7667 18.975 14.85 19.075C15.1333 19.375 15.4583 19.6042 15.825 19.7625C16.1917 19.9208 16.5833 20 17 20Z" fill="#434343"/>
<path d="M16.9655 20C16.872 20 16.7936 19.9681 16.7303 19.9042C16.6671 19.8403 16.6355 19.7611 16.6355 19.6667V19.2833C16.388 19.2278 16.1707 19.1306 15.9837 18.9917C15.7967 18.8528 15.6454 18.6583 15.5299 18.4083C15.4914 18.3306 15.4901 18.2486 15.5258 18.1625C15.5616 18.0764 15.6262 18.0139 15.7197 17.975C15.7967 17.9417 15.8765 17.9431 15.959 17.9792C16.0415 18.0153 16.1047 18.075 16.1487 18.1583C16.2422 18.325 16.3605 18.4514 16.5035 18.5375C16.6465 18.6236 16.8225 18.6667 17.0315 18.6667C17.257 18.6667 17.4481 18.6153 17.6049 18.5125C17.7616 18.4097 17.84 18.25 17.84 18.0333C17.84 17.8389 17.7795 17.6847 17.6585 17.5708C17.5375 17.4569 17.257 17.3278 16.817 17.1833C16.344 17.0333 16.0195 16.8542 15.8435 16.6458C15.6674 16.4375 15.5794 16.1833 15.5794 15.8833C15.5794 15.5222 15.6949 15.2417 15.926 15.0417C16.157 14.8417 16.3935 14.7278 16.6355 14.7V14.3333C16.6355 14.2389 16.6671 14.1597 16.7303 14.0958C16.7936 14.0319 16.872 14 16.9655 14C17.059 14 17.1373 14.0319 17.2006 14.0958C17.2639 14.1597 17.2955 14.2389 17.2955 14.3333V14.7C17.5045 14.7333 17.686 14.8014 17.84 14.9042C17.994 15.0069 18.1205 15.1333 18.2195 15.2833C18.269 15.3556 18.2786 15.4361 18.2484 15.525C18.2181 15.6139 18.1562 15.6778 18.0627 15.7167C17.9857 15.75 17.906 15.7514 17.8235 15.7208C17.741 15.6903 17.664 15.6361 17.5925 15.5583C17.521 15.4806 17.4371 15.4208 17.3409 15.3792C17.2446 15.3375 17.125 15.3167 16.982 15.3167C16.74 15.3167 16.5557 15.3708 16.4292 15.4792C16.3027 15.5875 16.2395 15.7222 16.2395 15.8833C16.2395 16.0667 16.322 16.2111 16.487 16.3167C16.652 16.4222 16.938 16.5333 17.345 16.65C17.7245 16.7611 18.0119 16.9375 18.2071 17.1792C18.4024 17.4208 18.5 17.7 18.5 18.0167C18.5 18.4111 18.3845 18.7111 18.1535 18.9167C17.9225 19.1222 17.6365 19.25 17.2955 19.3V19.6667C17.2955 19.7611 17.2639 19.8403 17.2006 19.9042C17.1373 19.9681 17.059 20 16.9655 20Z" fill="#F9F9F9"/>
</svg>
