<svg width="24" height="24" viewBox="0 0 24 24" fill="none" xmlns="http://www.w3.org/2000/svg">
<path d="M17 16C16.1667 16 15.4583 15.7083 14.875 15.125C14.2917 14.5417 14 13.8333 14 13C14 12.1667 14.2917 11.4583 14.875 10.875C15.4583 10.2917 16.1667 10 17 10C17.8333 10 18.5417 10.2917 19.125 10.875C19.7083 11.4583 20 12.1667 20 13C20 13.8333 19.7083 14.5417 19.125 15.125C18.5417 15.7083 17.8333 16 17 16ZM9 20.1V21H5C4.45 21 3.97917 20.8042 3.5875 20.4125C3.19583 20.0208 3 19.55 3 19V5C3 4.45 3.19583 3.97917 3.5875 3.5875C3.97917 3.19583 4.45 3 5 3H19C19.55 3 20.0208 3.19583 20.4125 3.5875C20.8042 3.97917 21 4.45 21 5V10C20.4833 9.35 19.9 8.85417 19.25 8.5125C18.6 8.17083 17.85 8 17 8C17 7.71667 16.9042 7.47917 16.7125 7.2875C16.5208 7.09583 16.2833 7 16 7H8C7.71667 7 7.47917 7.09583 7.2875 7.2875C7.09583 7.47917 7 7.71667 7 8C7 8.28333 7.09583 8.52083 7.2875 8.7125C7.47917 8.90417 7.71667 9 8 9H14C13.6667 9.26667 13.3667 9.56667 13.1 9.9C12.8333 10.2333 12.6083 10.6 12.425 11H8C7.71667 11 7.47917 11.0958 7.2875 11.2875C7.09583 11.4792 7 11.7167 7 12C7 12.2833 7.09583 12.5208 7.2875 12.7125C7.47917 12.9042 7.71667 13 8 13H12C12 13.35 12.0375 13.6917 12.1125 14.025C12.1875 14.3583 12.2917 14.6833 12.425 15H8C7.71667 15 7.47917 15.0958 7.2875 15.2875C7.09583 15.4792 7 15.7167 7 16C7 16.2833 7.09583 16.5208 7.2875 16.7125C7.47917 16.9042 7.71667 17 8 17H10.45C10 17.3833 9.64583 17.8458 9.3875 18.3875C9.12917 18.9292 9 19.5 9 20.1ZM12 23C11.7167 23 11.4792 22.9042 11.2875 22.7125C11.0958 22.5208 11 22.2833 11 22V20.1C11 19.75 11.0833 19.4208 11.25 19.1125C11.4167 18.8042 11.65 18.5583 11.95 18.375C12.4833 18.0583 12.9333 17.8375 13.3 17.7125C13.6667 17.5875 14.1583 17.475 14.775 17.375C14.975 17.3417 15.175 17.3458 15.375 17.3875C15.575 17.4292 15.7417 17.525 15.875 17.675L17 19L18.1 17.675C18.2333 17.5083 18.4 17.4083 18.6 17.375C18.8 17.3417 19 17.3417 19.2 17.375C19.8167 17.475 20.3083 17.5875 20.675 17.7125C21.0417 17.8375 21.4917 18.0583 22.025 18.375C22.325 18.5583 22.5625 18.8042 22.7375 19.1125C22.9125 19.4208 23 19.75 23 20.1V22C23 22.2833 22.9042 22.5208 22.7125 22.7125C22.5208 22.9042 22.2833 23 22 23H12Z" fill="#434343"/>
</svg>
