<svg width="21" height="21" viewBox="0 0 21 21" fill="none" xmlns="http://www.w3.org/2000/svg">
<path d="M3.80131 17.0609C3.33979 17.0609 2.9447 16.8965 2.61604 16.5679C2.28738 16.2392 2.12305 15.8441 2.12305 15.3826V5.31303C2.12305 4.8515 2.28738 4.45641 2.61604 4.12775C2.9447 3.7991 3.33979 3.63477 3.80131 3.63477H17.2274C17.6889 3.63477 18.084 3.7991 18.4127 4.12775C18.7413 4.45641 18.9057 4.8515 18.9057 5.31303V15.3826C18.9057 15.8441 18.7413 16.2392 18.4127 16.5679C18.084 16.8965 17.6889 17.0609 17.2274 17.0609H3.80131ZM3.80131 10.3478H17.2274V6.99129H3.80131V10.3478Z" fill="#434343"/>
</svg>
