<svg width="21" height="21" viewBox="0 0 21 21" fill="none" xmlns="http://www.w3.org/2000/svg">
<path d="M10.4989 18.953C9.01892 18.953 7.81118 18.7191 6.87571 18.2514C5.94024 17.7836 5.4725 17.1797 5.4725 16.4397C5.4725 16.1745 5.53184 15.9301 5.65052 15.7067C5.7692 15.4833 5.94722 15.2739 6.18458 15.0784C6.38005 14.9388 6.59297 14.883 6.82335 14.9109C7.05373 14.9388 7.23873 15.0505 7.37835 15.246C7.51797 15.4414 7.57033 15.6544 7.53543 15.8848C7.50052 16.1151 7.38533 16.3001 7.18986 16.4397C7.37137 16.6631 7.79024 16.8586 8.44646 17.0262C9.10269 17.1937 9.78684 17.2775 10.4989 17.2775C11.211 17.2775 11.8951 17.1937 12.5514 17.0262C13.2076 16.8586 13.6265 16.6631 13.808 16.4397C13.6125 16.3001 13.4973 16.1151 13.4624 15.8848C13.4275 15.6544 13.4799 15.4414 13.6195 15.246C13.7591 15.0505 13.9441 14.9388 14.1745 14.9109C14.4049 14.883 14.6178 14.9388 14.8133 15.0784C15.0506 15.2739 15.2286 15.4833 15.3473 15.7067C15.466 15.9301 15.5253 16.1745 15.5253 16.4397C15.5253 17.1797 15.0576 17.7836 14.1221 18.2514C13.1867 18.7191 11.9789 18.953 10.4989 18.953ZM10.4989 16.0418C10.3314 16.0418 10.1638 16.0139 9.99627 15.9581C9.82873 15.9022 9.67514 15.8184 9.53552 15.7067C7.88797 14.3943 6.65929 13.1132 5.84948 11.8636C5.03967 10.614 4.63477 9.38881 4.63477 8.18805C4.63477 7.19673 4.81278 6.32758 5.16882 5.5806C5.52486 4.83362 5.98212 4.20881 6.54061 3.70617C7.0991 3.20353 7.72741 2.82654 8.42552 2.57522C9.12363 2.3239 9.81476 2.19824 10.4989 2.19824C11.1831 2.19824 11.8742 2.3239 12.5723 2.57522C13.2704 2.82654 13.8987 3.20353 14.4572 3.70617C15.0157 4.20881 15.473 4.83362 15.829 5.5806C16.185 6.32758 16.3631 7.19673 16.3631 8.18805C16.3631 9.38881 15.9582 10.614 15.1483 11.8636C14.3385 13.1132 13.1099 14.3943 11.4623 15.7067C11.3227 15.8184 11.1691 15.9022 11.0016 15.9581C10.834 16.0139 10.6665 16.0418 10.4989 16.0418ZM10.4989 9.73786C10.9597 9.73786 11.3541 9.57381 11.6822 9.24569C12.0103 8.91758 12.1744 8.52315 12.1744 8.06239C12.1744 7.60164 12.0103 7.2072 11.6822 6.87909C11.3541 6.55098 10.9597 6.38692 10.4989 6.38692C10.0382 6.38692 9.64373 6.55098 9.31561 6.87909C8.9875 7.2072 8.82344 7.60164 8.82344 8.06239C8.82344 8.52315 8.9875 8.91758 9.31561 9.24569C9.64373 9.57381 10.0382 9.73786 10.4989 9.73786Z" fill="#434343"/>
</svg>
