<svg width="41" height="41" viewBox="0 0 41 41" fill="none" xmlns="http://www.w3.org/2000/svg">
<path d="M25.6609 1.55386L21.7279 0.5L18.4135 12.8696L15.4212 1.70224L11.4881 2.7561L14.7211 14.8216L6.66844 6.76898L3.78925 9.64817L12.622 18.481L1.62222 15.5336L0.568359 19.4666L12.587 22.687C12.4494 22.0935 12.3766 21.4751 12.3766 20.8397C12.3766 16.3421 16.0226 12.6961 20.5202 12.6961C25.0178 12.6961 28.6638 16.3421 28.6638 20.8397C28.6638 21.471 28.5919 22.0856 28.456 22.6756L39.3787 25.6023L40.4325 21.6693L28.3661 18.4361L39.3666 15.4885L38.3127 11.5555L26.2468 14.7885L34.2994 6.73592L31.4202 3.85673L22.71 12.567L25.6609 1.55386Z" fill="#0055FF"/>
<path d="M28.4448 22.7212C28.1076 24.1468 27.3957 25.4275 26.4189 26.4536L34.3319 34.3667L37.2111 31.4875L28.4448 22.7212Z" fill="#0055FF"/>
<path d="M26.3391 26.5366C25.3505 27.5463 24.1012 28.2998 22.7002 28.6881L25.5796 39.4341L29.5126 38.3802L26.3391 26.5366Z" fill="#0055FF"/>
<path d="M22.5533 28.7274C21.9033 28.8945 21.222 28.9833 20.5199 28.9833C19.7677 28.9833 19.0393 28.8813 18.3478 28.6904L15.4658 39.4462L19.3988 40.5L22.5533 28.7274Z" fill="#0055FF"/>
<path d="M18.2088 28.6506C16.8292 28.243 15.6021 27.4799 14.6337 26.4673L6.70117 34.3998L9.58036 37.279L18.2088 28.6506Z" fill="#0055FF"/>
<path d="M14.5682 26.3971C13.6164 25.3781 12.9231 24.1145 12.5931 22.7109L1.63477 25.6472L2.68862 29.5802L14.5682 26.3971Z" fill="#0055FF"/>
</svg>
