<svg width="27" height="28" viewBox="0 0 27 28" fill="none" xmlns="http://www.w3.org/2000/svg">
<path d="M6.69607 20.6966L4.12907 23.2636C3.77564 23.617 3.37106 23.696 2.91532 23.5007C2.45959 23.3054 2.23172 22.9566 2.23172 22.4544V5.07135C2.23172 4.4575 2.45029 3.93201 2.88742 3.49487C3.32455 3.05774 3.85005 2.83917 4.46389 2.83917H22.3213C22.9351 2.83917 23.4606 3.05774 23.8977 3.49487C24.3349 3.93201 24.5534 4.4575 24.5534 5.07135V18.4644C24.5534 19.0782 24.3349 19.6037 23.8977 20.0409C23.4606 20.478 22.9351 20.6966 22.3213 20.6966H6.69607ZM7.81215 16.2322H14.5087C14.8249 16.2322 15.09 16.1253 15.3039 15.9113C15.5178 15.6974 15.6248 15.4323 15.6248 15.1161C15.6248 14.7999 15.5178 14.5348 15.3039 14.3209C15.09 14.107 14.8249 14 14.5087 14H7.81215C7.49593 14 7.23086 14.107 7.01694 14.3209C6.80302 14.5348 6.69607 14.7999 6.69607 15.1161C6.69607 15.4323 6.80302 15.6974 7.01694 15.9113C7.23086 16.1253 7.49593 16.2322 7.81215 16.2322ZM7.81215 12.884H18.973C19.2892 12.884 19.5543 12.777 19.7682 12.5631C19.9821 12.3492 20.0891 12.0841 20.0891 11.7679C20.0891 11.4516 19.9821 11.1866 19.7682 10.9727C19.5543 10.7587 19.2892 10.6518 18.973 10.6518H7.81215C7.49593 10.6518 7.23086 10.7587 7.01694 10.9727C6.80302 11.1866 6.69607 11.4516 6.69607 11.7679C6.69607 12.0841 6.80302 12.3492 7.01694 12.5631C7.23086 12.777 7.49593 12.884 7.81215 12.884ZM7.81215 9.53569H18.973C19.2892 9.53569 19.5543 9.42873 19.7682 9.21482C19.9821 9.0009 20.0891 8.73583 20.0891 8.41961C20.0891 8.10338 19.9821 7.83831 19.7682 7.62439C19.5543 7.41048 19.2892 7.30352 18.973 7.30352H7.81215C7.49593 7.30352 7.23086 7.41048 7.01694 7.62439C6.80302 7.83831 6.69607 8.10338 6.69607 8.41961C6.69607 8.73583 6.80302 9.0009 7.01694 9.21482C7.23086 9.42873 7.49593 9.53569 7.81215 9.53569Z" fill="#434343"/>
</svg>
