<svg width="24" height="24" viewBox="0 0 24 24" fill="none" xmlns="http://www.w3.org/2000/svg">
<path d="M6.69997 21C6.21663 21 5.78747 20.8417 5.41247 20.525C5.03747 20.2083 4.8083 19.8083 4.72497 19.325L3.19997 10.175C3.14997 9.875 3.2208 9.60417 3.41247 9.3625C3.60413 9.12083 3.8583 9 4.17497 9H19.825C20.1416 9 20.3958 9.12083 20.5875 9.3625C20.7791 9.60417 20.85 9.875 20.8 10.175L19.275 19.325C19.1916 19.8083 18.9625 20.2083 18.5875 20.525C18.2125 20.8417 17.7833 21 17.3 21H6.69997ZM9.99997 15H14C14.2833 15 14.5208 14.9042 14.7125 14.7125C14.9041 14.5208 15 14.2833 15 14C15 13.7167 14.9041 13.4792 14.7125 13.2875C14.5208 13.0958 14.2833 13 14 13H9.99997C9.71663 13 9.47913 13.0958 9.28747 13.2875C9.0958 13.4792 8.99997 13.7167 8.99997 14C8.99997 14.2833 9.0958 14.5208 9.28747 14.7125C9.47913 14.9042 9.71663 15 9.99997 15ZM5.99997 8C5.71663 8 5.47913 7.90417 5.28747 7.7125C5.0958 7.52083 4.99997 7.28333 4.99997 7C4.99997 6.71667 5.0958 6.47917 5.28747 6.2875C5.47913 6.09583 5.71663 6 5.99997 6H18C18.2833 6 18.5208 6.09583 18.7125 6.2875C18.9041 6.47917 19 6.71667 19 7C19 7.28333 18.9041 7.52083 18.7125 7.7125C18.5208 7.90417 18.2833 8 18 8H5.99997ZM7.99997 5C7.71663 5 7.47913 4.90417 7.28747 4.7125C7.0958 4.52083 6.99997 4.28333 6.99997 4C6.99997 3.71667 7.0958 3.47917 7.28747 3.2875C7.47913 3.09583 7.71663 3 7.99997 3H16C16.2833 3 16.5208 3.09583 16.7125 3.2875C16.9041 3.47917 17 3.71667 17 4C17 4.28333 16.9041 4.52083 16.7125 4.7125C16.5208 4.90417 16.2833 5 16 5H7.99997Z" fill="#434343"/>
</svg>
