<svg width="30" height="30" viewBox="0 0 30 30" fill="none" xmlns="http://www.w3.org/2000/svg">
<path d="M21.25 27.5C19.5208 27.5 18.0469 26.8906 16.8281 25.6719C15.6094 24.4531 15 22.9792 15 21.25C15 19.5208 15.6094 18.0469 16.8281 16.8281C18.0469 15.6094 19.5208 15 21.25 15C22.9792 15 24.4531 15.6094 25.6719 16.8281C26.8906 18.0469 27.5 19.5208 27.5 21.25C27.5 22.9792 26.8906 24.4531 25.6719 25.6719C24.4531 26.8906 22.9792 27.5 21.25 27.5ZM21.875 21V18.125C21.875 17.9583 21.8125 17.8125 21.6875 17.6875C21.5625 17.5625 21.4167 17.5 21.25 17.5C21.0833 17.5 20.9375 17.5625 20.8125 17.6875C20.6875 17.8125 20.625 17.9583 20.625 18.125V20.9688C20.625 21.1354 20.6562 21.2969 20.7188 21.4531C20.7812 21.6094 20.875 21.75 21 21.875L22.9062 23.7812C23.0312 23.9062 23.1771 23.9688 23.3438 23.9688C23.5104 23.9688 23.6562 23.9062 23.7812 23.7812C23.9062 23.6562 23.9688 23.5104 23.9688 23.3438C23.9688 23.1771 23.9062 23.0312 23.7812 22.9062L21.875 21ZM6.25 26.25C5.5625 26.25 4.97396 26.0052 4.48438 25.5156C3.99479 25.026 3.75 24.4375 3.75 23.75V6.25C3.75 5.5625 3.99479 4.97396 4.48438 4.48438C4.97396 3.99479 5.5625 3.75 6.25 3.75H11.4688C11.6979 3.02083 12.1458 2.42188 12.8125 1.95312C13.4792 1.48438 14.2083 1.25 15 1.25C15.8333 1.25 16.5781 1.48438 17.2344 1.95312C17.8906 2.42188 18.3333 3.02083 18.5625 3.75H23.75C24.4375 3.75 25.026 3.99479 25.5156 4.48438C26.0052 4.97396 26.25 5.5625 26.25 6.25V11.25C26.25 11.6042 26.1302 11.901 25.8906 12.1406C25.651 12.3802 25.3542 12.5 25 12.5C24.6458 12.5 24.349 12.3802 24.1094 12.1406C23.8698 11.901 23.75 11.6042 23.75 11.25V6.25H21.25V8.75C21.25 9.10417 21.1302 9.40104 20.8906 9.64062C20.651 9.88021 20.3542 10 20 10H10C9.64583 10 9.34896 9.88021 9.10938 9.64062C8.86979 9.40104 8.75 9.10417 8.75 8.75V6.25H6.25V23.75H11.875C12.2292 23.75 12.526 23.8698 12.7656 24.1094C13.0052 24.349 13.125 24.6458 13.125 25C13.125 25.3542 13.0052 25.651 12.7656 25.8906C12.526 26.1302 12.2292 26.25 11.875 26.25H6.25ZM15 6.25C15.3542 6.25 15.651 6.13021 15.8906 5.89062C16.1302 5.65104 16.25 5.35417 16.25 5C16.25 4.64583 16.1302 4.34896 15.8906 4.10938C15.651 3.86979 15.3542 3.75 15 3.75C14.6458 3.75 14.349 3.86979 14.1094 4.10938C13.8698 4.34896 13.75 4.64583 13.75 5C13.75 5.35417 13.8698 5.65104 14.1094 5.89062C14.349 6.13021 14.6458 6.25 15 6.25Z" fill="#EF5C00"/>
</svg>
