<svg width="21" height="21" viewBox="0 0 21 21" fill="none" xmlns="http://www.w3.org/2000/svg">
<path d="M17.1862 17.6219C15.438 17.6219 13.7108 17.2408 12.0045 16.4786C10.2983 15.7164 8.7459 14.636 7.34735 13.2375C5.9488 11.8389 4.86842 10.2865 4.10621 8.5803C3.344 6.87406 2.96289 5.14685 2.96289 3.39867C2.96289 3.14693 3.0468 2.93714 3.21463 2.76932C3.38246 2.60149 3.59224 2.51758 3.84398 2.51758H7.24246C7.43825 2.51758 7.61307 2.58401 7.76691 2.71687C7.92075 2.84973 8.01166 3.00707 8.03963 3.18888L8.58506 6.12584C8.61304 6.34961 8.60604 6.53841 8.56409 6.69225C8.52213 6.84609 8.44521 6.97895 8.33333 7.09084L6.29843 9.14671C6.57814 9.66417 6.9103 10.1642 7.2949 10.6467C7.6795 11.1292 8.10256 11.5942 8.56409 12.0417C8.99764 12.4753 9.45217 12.8773 9.92767 13.248C10.4032 13.6186 10.9067 13.9577 11.4381 14.2654L13.4101 12.2934C13.5359 12.1676 13.7003 12.0732 13.9031 12.0102C14.1058 11.9473 14.3051 11.9298 14.5009 11.9578L17.3959 12.5452C17.5917 12.6011 17.7526 12.7025 17.8784 12.8494C18.0043 12.9962 18.0672 13.1605 18.0672 13.3424V16.7408C18.0672 16.9926 17.9833 17.2024 17.8155 17.3702C17.6477 17.538 17.4379 17.6219 17.1862 17.6219Z" fill="#434343"/>
</svg>
