<svg width="16" height="16" viewBox="0 0 16 16" fill="none" xmlns="http://www.w3.org/2000/svg">
<path d="M7.67181 9.80539L5.40619 7.53976C5.37494 7.50851 5.3515 7.47466 5.33588 7.4382C5.32025 7.40174 5.31244 7.36268 5.31244 7.32101C5.31244 7.23768 5.34108 7.16476 5.39838 7.10226C5.45567 7.03976 5.53119 7.00851 5.62494 7.00851H10.3749C10.4687 7.00851 10.5442 7.03976 10.6015 7.10226C10.6588 7.16476 10.6874 7.23768 10.6874 7.32101C10.6874 7.34185 10.6562 7.41476 10.5937 7.53976L8.32806 9.80539C8.27598 9.85747 8.2239 9.89393 8.17181 9.91476C8.11973 9.9356 8.06244 9.94601 7.99994 9.94601C7.93744 9.94601 7.88015 9.9356 7.82806 9.91476C7.77598 9.89393 7.7239 9.85747 7.67181 9.80539Z" fill="#760002"/>
</svg>
