<svg width="20" height="20" viewBox="0 0 20 20" fill="none" xmlns="http://www.w3.org/2000/svg">
<path d="M5.22609 16.1701C4.80191 16.1701 4.43878 16.019 4.1367 15.717C3.83463 15.4149 3.68359 15.0518 3.68359 14.6276C3.68359 14.2034 3.83463 13.8403 4.1367 13.5382C4.43878 13.2361 4.80191 13.0851 5.22609 13.0851C5.65028 13.0851 6.01341 13.2361 6.31548 13.5382C6.61756 13.8403 6.76859 14.2034 6.76859 14.6276C6.76859 15.0518 6.61756 15.4149 6.31548 15.717C6.01341 16.019 5.65028 16.1701 5.22609 16.1701ZM5.22609 11.5426C4.80191 11.5426 4.43878 11.3915 4.1367 11.0895C3.83463 10.7874 3.68359 10.4243 3.68359 10.0001C3.68359 9.57589 3.83463 9.21276 4.1367 8.91069C4.43878 8.60861 4.80191 8.45758 5.22609 8.45758C5.65028 8.45758 6.01341 8.60861 6.31548 8.91069C6.61756 9.21276 6.76859 9.57589 6.76859 10.0001C6.76859 10.4243 6.61756 10.7874 6.31548 11.0895C6.01341 11.3915 5.65028 11.5426 5.22609 11.5426ZM5.22609 6.91508C4.80191 6.91508 4.43878 6.76404 4.1367 6.46197C3.83463 6.1599 3.68359 5.79677 3.68359 5.37258C3.68359 4.94839 3.83463 4.58526 4.1367 4.28319C4.43878 3.98111 4.80191 3.83008 5.22609 3.83008C5.65028 3.83008 6.01341 3.98111 6.31548 4.28319C6.61756 4.58526 6.76859 4.94839 6.76859 5.37258C6.76859 5.79677 6.61756 6.1599 6.31548 6.46197C6.01341 6.76404 5.65028 6.91508 5.22609 6.91508ZM9.85359 6.91508C9.42941 6.91508 9.06628 6.76404 8.7642 6.46197C8.46213 6.1599 8.31109 5.79677 8.31109 5.37258C8.31109 4.94839 8.46213 4.58526 8.7642 4.28319C9.06628 3.98111 9.42941 3.83008 9.85359 3.83008C10.2778 3.83008 10.6409 3.98111 10.943 4.28319C11.2451 4.58526 11.3961 4.94839 11.3961 5.37258C11.3961 5.79677 11.2451 6.1599 10.943 6.46197C10.6409 6.76404 10.2778 6.91508 9.85359 6.91508ZM14.4811 6.91508C14.0569 6.91508 13.6938 6.76404 13.3917 6.46197C13.0896 6.1599 12.9386 5.79677 12.9386 5.37258C12.9386 4.94839 13.0896 4.58526 13.3917 4.28319C13.6938 3.98111 14.0569 3.83008 14.4811 3.83008C14.9053 3.83008 15.2684 3.98111 15.5705 4.28319C15.8726 4.58526 16.0236 4.94839 16.0236 5.37258C16.0236 5.79677 15.8726 6.1599 15.5705 6.46197C15.2684 6.76404 14.9053 6.91508 14.4811 6.91508ZM9.85359 11.5426C9.42941 11.5426 9.06628 11.3915 8.7642 11.0895C8.46213 10.7874 8.31109 10.4243 8.31109 10.0001C8.31109 9.57589 8.46213 9.21276 8.7642 8.91069C9.06628 8.60861 9.42941 8.45758 9.85359 8.45758C10.2778 8.45758 10.6409 8.60861 10.943 8.91069C11.2451 9.21276 11.3961 9.57589 11.3961 10.0001C11.3961 10.4243 11.2451 10.7874 10.943 11.0895C10.6409 11.3915 10.2778 11.5426 9.85359 11.5426ZM10.6248 16.1701V13.7985L14.886 9.55661C15.0017 9.44092 15.1302 9.35737 15.2716 9.30595C15.413 9.25454 15.5544 9.22883 15.6958 9.22883C15.8501 9.22883 15.9979 9.25775 16.1393 9.31559C16.2807 9.37344 16.4092 9.4602 16.5249 9.57589L17.2383 10.2893C17.3411 10.405 17.4215 10.5335 17.4793 10.6749C17.5372 10.8163 17.5661 10.9577 17.5661 11.0991C17.5661 11.2405 17.5404 11.3851 17.489 11.5329C17.4376 11.6808 17.354 11.8125 17.2383 11.9282L12.9964 16.1701H10.6248ZM15.6958 11.8511L16.4092 11.0991L15.6958 10.3857L14.9631 11.1184L15.6958 11.8511Z" fill="#434343"/>
</svg>
