<svg width="18" height="18" viewBox="0 0 18 18" fill="none" xmlns="http://www.w3.org/2000/svg">
<path d="M10.73 5.57197V1.88922C10.73 1.62822 10.8169 1.41155 10.9907 1.23922C11.1646 1.06672 11.3799 0.980469 11.6367 0.980469H17.0772C17.3342 0.980469 17.5489 1.06672 17.7212 1.23922C17.8937 1.41155 17.98 1.62822 17.98 1.88922V5.57197C17.98 5.8328 17.8931 6.04939 17.7192 6.22172C17.5454 6.39422 17.3301 6.48047 17.0732 6.48047H11.6327C11.3757 6.48047 11.1611 6.39422 10.9887 6.22172C10.8162 6.04939 10.73 5.8328 10.73 5.57197ZM0.97998 9.08047V1.88022C0.97998 1.62522 1.0669 1.41155 1.24073 1.23922C1.41456 1.06672 1.6299 0.980469 1.88673 0.980469H7.32723C7.58423 0.980469 7.7989 1.06672 7.97123 1.23922C8.14373 1.41172 8.22998 1.62547 8.22998 1.88047V9.08072C8.22998 9.33572 8.14306 9.54939 7.96923 9.72172C7.7954 9.89422 7.58006 9.98047 7.32323 9.98047H1.88273C1.62573 9.98047 1.41106 9.89422 1.23873 9.72172C1.06623 9.54922 0.97998 9.33547 0.97998 9.08047ZM10.73 17.0805V9.88022C10.73 9.62522 10.8169 9.41155 10.9907 9.23922C11.1646 9.06672 11.3799 8.98047 11.6367 8.98047H17.0772C17.3342 8.98047 17.5489 9.06672 17.7212 9.23922C17.8937 9.41172 17.98 9.62547 17.98 9.88047V17.0807C17.98 17.3357 17.8931 17.5494 17.7192 17.7217C17.5454 17.8942 17.3301 17.9805 17.0732 17.9805H11.6327C11.3757 17.9805 11.1611 17.8942 10.9887 17.7217C10.8162 17.5492 10.73 17.3355 10.73 17.0805ZM0.97998 17.0717V13.389C0.97998 13.1281 1.0669 12.9116 1.24073 12.7392C1.41456 12.5667 1.6299 12.4805 1.88673 12.4805H7.32723C7.58423 12.4805 7.7989 12.5667 7.97123 12.7392C8.14373 12.9116 8.22998 13.1281 8.22998 13.389V17.0717C8.22998 17.3327 8.14306 17.5494 7.96923 17.7217C7.7954 17.8942 7.58006 17.9805 7.32323 17.9805H1.88273C1.62573 17.9805 1.41106 17.8942 1.23873 17.7217C1.06623 17.5494 0.97998 17.3327 0.97998 17.0717ZM2.47998 8.48047H6.72998V2.48047H2.47998V8.48047ZM12.23 16.4805H16.48V10.4805H12.23V16.4805ZM12.23 4.98047H16.48V2.48047H12.23V4.98047ZM2.47998 16.4805H6.72998V13.9805H2.47998V16.4805Z" fill="white"/>
</svg>
