<svg width="15" height="16" viewBox="0 0 15 16" fill="none" xmlns="http://www.w3.org/2000/svg">
<path d="M7.50038 11.2969L4.90663 12.8594C4.79204 12.9323 4.67225 12.9635 4.54725 12.9531C4.42225 12.9427 4.31288 12.901 4.21913 12.8281C4.12538 12.7552 4.05246 12.6641 4.00038 12.5547C3.94829 12.4453 3.93788 12.3229 3.96913 12.1875L4.65663 9.23438L2.35975 7.25C2.25558 7.15625 2.19048 7.04948 2.16444 6.92969C2.1384 6.8099 2.14621 6.69271 2.18788 6.57812C2.22954 6.46354 2.29204 6.36979 2.37538 6.29688C2.45871 6.22396 2.57329 6.17708 2.71913 6.15625L5.75038 5.89062L6.92225 3.10938C6.97433 2.98438 7.05506 2.89062 7.16444 2.82812C7.27381 2.76562 7.38579 2.73438 7.50038 2.73438C7.61496 2.73438 7.72694 2.76562 7.83631 2.82812C7.94569 2.89062 8.02642 2.98438 8.0785 3.10938L9.25038 5.89062L12.2816 6.15625C12.4275 6.17708 12.542 6.22396 12.6254 6.29688C12.7087 6.36979 12.7712 6.46354 12.8129 6.57812C12.8545 6.69271 12.8624 6.8099 12.8363 6.92969C12.8103 7.04948 12.7452 7.15625 12.641 7.25L10.3441 9.23438L11.0316 12.1875C11.0629 12.3229 11.0525 12.4453 11.0004 12.5547C10.9483 12.6641 10.8754 12.7552 10.7816 12.8281C10.6879 12.901 10.5785 12.9427 10.4535 12.9531C10.3285 12.9635 10.2087 12.9323 10.0941 12.8594L7.50038 11.2969Z" fill="#EFCB00"/>
</svg>
