<svg width="15" height="16" viewBox="0 0 15 16" fill="none" xmlns="http://www.w3.org/2000/svg">
<path d="M2.5 13.625C2.15625 13.625 1.86198 13.5026 1.61719 13.2578C1.3724 13.013 1.25 12.7188 1.25 12.375V5.5C1.25 5.15625 1.3724 4.86198 1.61719 4.61719C1.86198 4.3724 2.15625 4.25 2.5 4.25H3.75V6L0.875 3.125C0.760417 3.01042 0.703125 2.86458 0.703125 2.6875C0.703125 2.51042 0.760417 2.36458 0.875 2.25C0.989583 2.13542 1.13542 2.07812 1.3125 2.07812C1.48958 2.07812 1.63542 2.13542 1.75 2.25L13.25 13.75C13.3646 13.8646 13.4219 14.0104 13.4219 14.1875C13.4219 14.3646 13.3646 14.5104 13.25 14.625C13.1354 14.7396 12.9896 14.7969 12.8125 14.7969C12.6354 14.7969 12.4896 14.7396 12.375 14.625L11.375 13.625H2.5ZM13.75 5.5V10.9531C13.75 11.1406 13.6875 11.2943 13.5625 11.4141C13.4375 11.5339 13.2917 11.5938 13.125 11.5938C13.0417 11.5938 12.9635 11.5781 12.8906 11.5469C12.8177 11.5156 12.75 11.4688 12.6875 11.4062L5.35938 4.07812C5.24479 3.96354 5.15625 3.83073 5.09375 3.67969C5.03125 3.52865 5 3.36979 5 3.20312V3C5 2.65625 5.1224 2.36198 5.36719 2.11719C5.61198 1.8724 5.90625 1.75 6.25 1.75H8.75C9.09375 1.75 9.38802 1.8724 9.63281 2.11719C9.8776 2.36198 10 2.65625 10 3V4.25H12.5C12.8438 4.25 13.138 4.3724 13.3828 4.61719C13.6276 4.86198 13.75 5.15625 13.75 5.5ZM6.25 4.25H8.75V3H6.25V4.25Z" fill="#D30000"/>
</svg>
