<svg width="15" height="15" viewBox="0 0 15 15" fill="none" xmlns="http://www.w3.org/2000/svg">
<path d="M2.99999 13.2C2.66999 13.2 2.38749 13.0825 2.15249 12.8475C1.91749 12.6125 1.79999 12.33 1.79999 12V3.6C1.79999 3.27 1.91749 2.9875 2.15249 2.7525C2.38749 2.5175 2.66999 2.4 2.99999 2.4H3.59999V1.8C3.59999 1.63 3.65749 1.4875 3.77249 1.3725C3.88749 1.2575 4.02999 1.2 4.19999 1.2C4.36999 1.2 4.51249 1.2575 4.62749 1.3725C4.74249 1.4875 4.79999 1.63 4.79999 1.8V2.4H9.59999V1.8C9.59999 1.63 9.65749 1.4875 9.77249 1.3725C9.88749 1.2575 10.03 1.2 10.2 1.2C10.37 1.2 10.5125 1.2575 10.6275 1.3725C10.7425 1.4875 10.8 1.63 10.8 1.8V2.4H11.4C11.73 2.4 12.0125 2.5175 12.2475 2.7525C12.4825 2.9875 12.6 3.27 12.6 3.6V6.405C12.6 6.575 12.5425 6.7175 12.4275 6.8325C12.3125 6.9475 12.17 7.005 12 7.005C11.83 7.005 11.6875 6.9475 11.5725 6.8325C11.4575 6.7175 11.4 6.575 11.4 6.405V6H2.99999V12H6.47999C6.64999 12 6.79249 12.0575 6.90749 12.1725C7.02249 12.2875 7.07999 12.43 7.07999 12.6C7.07999 12.77 7.02249 12.9125 6.90749 13.0275C6.79249 13.1425 6.64999 13.2 6.47999 13.2H2.99999ZM10.8 13.8C9.96999 13.8 9.26249 13.5075 8.67749 12.9225C8.09249 12.3375 7.79999 11.63 7.79999 10.8C7.79999 9.97 8.09249 9.2625 8.67749 8.6775C9.26249 8.0925 9.96999 7.8 10.8 7.8C11.63 7.8 12.3375 8.0925 12.9225 8.6775C13.5075 9.2625 13.8 9.97 13.8 10.8C13.8 11.63 13.5075 12.3375 12.9225 12.9225C12.3375 13.5075 11.63 13.8 10.8 13.8ZM11.1 10.68V9.3C11.1 9.22 11.07 9.15 11.01 9.09C10.95 9.03 10.88 9 10.8 9C10.72 9 10.65 9.03 10.59 9.09C10.53 9.15 10.5 9.22 10.5 9.3V10.665C10.5 10.745 10.515 10.8225 10.545 10.8975C10.575 10.9725 10.62 11.04 10.68 11.1L11.595 12.015C11.655 12.075 11.725 12.105 11.805 12.105C11.885 12.105 11.955 12.075 12.015 12.015C12.075 11.955 12.105 11.885 12.105 11.805C12.105 11.725 12.075 11.655 12.015 11.595L11.1 10.68Z" fill="#111928"/>
</svg>
