<svg width="15" height="15" viewBox="0 0 15 15" fill="none" xmlns="http://www.w3.org/2000/svg">
<path d="M7.20007 13.2C6.37007 13.2 5.59007 13.0425 4.86007 12.7275C4.13007 12.4125 3.49507 11.985 2.95507 11.445C2.41507 10.905 1.98757 10.27 1.67257 9.54001C1.35757 8.81001 1.20007 8.03001 1.20007 7.20001C1.20007 6.37001 1.35757 5.59001 1.67257 4.86001C1.98757 4.13001 2.41507 3.49501 2.95507 2.95501C3.49507 2.41501 4.13007 1.98751 4.86007 1.67251C5.59007 1.35751 6.37007 1.20001 7.20007 1.20001C8.04007 1.20001 8.82257 1.35751 9.54757 1.67251C10.2726 1.98751 10.9051 2.41501 11.4451 2.95501C11.9851 3.49501 12.4126 4.12751 12.7276 4.85251C13.0426 5.57751 13.2001 6.36001 13.2001 7.20001C13.2001 7.30001 13.1976 7.39751 13.1926 7.49251C13.1876 7.58751 13.1801 7.68001 13.1701 7.77001C13.1501 7.94001 13.0776 8.07001 12.9526 8.16001C12.8276 8.25001 12.6801 8.28001 12.5101 8.25001C12.3401 8.22001 12.2051 8.13501 12.1051 7.99501C12.0051 7.85501 11.9651 7.70001 11.9851 7.53001C11.9851 7.48001 11.9876 7.42501 11.9926 7.36501C11.9976 7.30501 12.0001 7.25001 12.0001 7.20001C12.0001 6.53001 11.8776 5.90501 11.6326 5.32501C11.3876 4.74501 11.0451 4.23501 10.6051 3.79501C10.1651 3.35501 9.65507 3.01251 9.07507 2.76751C8.49507 2.52251 7.87007 2.40001 7.20007 2.40001C5.86007 2.40001 4.72507 2.86501 3.79507 3.79501C2.86507 4.72501 2.40007 5.86001 2.40007 7.20001C2.40007 8.54001 2.86507 9.67501 3.79507 10.605C4.72507 11.535 5.86007 12 7.20007 12C7.65007 12 8.08257 11.9425 8.49757 11.8275C8.91257 11.7125 9.30507 11.54 9.67507 11.31C9.81507 11.23 9.96757 11.2 10.1326 11.22C10.2976 11.24 10.4251 11.32 10.5151 11.46C10.6151 11.6 10.6476 11.7525 10.6126 11.9175C10.5776 12.0825 10.4901 12.21 10.3501 12.3C9.88007 12.59 9.38257 12.8125 8.85757 12.9675C8.33257 13.1225 7.78007 13.2 7.20007 13.2ZM11.5501 10.8C11.3401 10.8 11.1626 10.7275 11.0176 10.5825C10.8726 10.4375 10.8001 10.26 10.8001 10.05C10.8001 9.84001 10.8726 9.66251 11.0176 9.51751C11.1626 9.37251 11.3401 9.30001 11.5501 9.30001C11.7601 9.30001 11.9376 9.37251 12.0826 9.51751C12.2276 9.66251 12.3001 9.84001 12.3001 10.05C12.3001 10.26 12.2276 10.4375 12.0826 10.5825C11.9376 10.7275 11.7601 10.8 11.5501 10.8ZM7.80007 6.96001L9.60007 8.76001C9.71007 8.87001 9.76507 9.01001 9.76507 9.18001C9.76507 9.35001 9.71007 9.49001 9.60007 9.60001C9.49007 9.71001 9.35007 9.76501 9.18007 9.76501C9.01007 9.76501 8.87007 9.71001 8.76007 9.60001L6.78007 7.62001C6.72007 7.56001 6.67507 7.49251 6.64507 7.41751C6.61507 7.34251 6.60007 7.26501 6.60007 7.18501V4.80001C6.60007 4.63001 6.65757 4.48751 6.77257 4.37251C6.88757 4.25751 7.03007 4.20001 7.20007 4.20001C7.37007 4.20001 7.51257 4.25751 7.62757 4.37251C7.74257 4.48751 7.80007 4.63001 7.80007 4.80001V6.96001Z" fill="#111928"/>
</svg>
