<svg width="7" height="4" viewBox="0 0 7 4" fill="none" xmlns="http://www.w3.org/2000/svg">
<path d="M3.01855 0.407226L0.75293 2.67285C0.72168 2.7041 0.698242 2.73796 0.682617 2.77441C0.666992 2.81087 0.65918 2.84993 0.65918 2.8916C0.65918 2.97493 0.687826 3.04785 0.745117 3.11035C0.802409 3.17285 0.87793 3.2041 0.97168 3.2041H5.72168C5.81543 3.2041 5.89095 3.17285 5.94824 3.11035C6.00553 3.04785 6.03418 2.97493 6.03418 2.8916C6.03418 2.87077 6.00293 2.79785 5.94043 2.67285L3.6748 0.407226C3.62272 0.355143 3.57064 0.318685 3.51855 0.297851C3.46647 0.277018 3.40918 0.266601 3.34668 0.266601C3.28418 0.266601 3.22689 0.277018 3.1748 0.297851C3.12272 0.318685 3.07064 0.355143 3.01855 0.407226Z" fill="#0A7600"/>
</svg>
