<svg width="7" height="12" viewBox="0 0 7 12" fill="none" xmlns="http://www.w3.org/2000/svg">
<path d="M5.50121 11.1153L1.03318 6.64729C0.930472 6.54457 0.858573 6.44186 0.817487 6.33915C0.776402 6.23644 0.755859 6.12345 0.755859 6.0002C0.755859 5.87694 0.776402 5.76395 0.817487 5.66124C0.858573 5.55853 0.930472 5.45582 1.03318 5.3531L5.50121 0.885079C5.56284 0.823451 5.6296 0.77723 5.7015 0.746416C5.7734 0.715602 5.85043 0.700195 5.9326 0.700195C6.09694 0.700195 6.24074 0.756688 6.364 0.869672C6.48725 0.982657 6.54888 1.13159 6.54888 1.31647V10.6839C6.54888 10.8688 6.48725 11.0177 6.364 11.1307C6.24074 11.2437 6.09694 11.3002 5.9326 11.3002C5.89152 11.3002 5.74772 11.2386 5.50121 11.1153Z" fill="#0055FF"/>
</svg>
