<svg width="7" height="12" viewBox="0 0 7 12" fill="none" xmlns="http://www.w3.org/2000/svg">
<path d="M1.65114 11.1153L6.11916 6.64729C6.22187 6.54458 6.29377 6.44186 6.33486 6.33915C6.37594 6.23644 6.39648 6.12345 6.39648 6.0002C6.39648 5.87694 6.37594 5.76396 6.33486 5.66124C6.29377 5.55853 6.22187 5.45582 6.11916 5.3531L1.65114 0.885079C1.58951 0.823451 1.52274 0.77723 1.45084 0.746416C1.37895 0.715602 1.30191 0.700195 1.21974 0.700195C1.0554 0.700195 0.911601 0.756688 0.788344 0.869672C0.665089 0.982657 0.603461 1.13159 0.603461 1.31647V10.6839C0.603461 10.8688 0.665089 11.0177 0.788344 11.1307C0.911601 11.2437 1.0554 11.3002 1.21974 11.3002C1.26083 11.3002 1.40462 11.2386 1.65114 11.1153Z" fill="#0055FF"/>
</svg>
