<svg width="9" height="6" viewBox="0 0 9 6" fill="none" xmlns="http://www.w3.org/2000/svg">
<path d="M3.97519 5.12539L0.350195 1.50039C0.300195 1.45039 0.262695 1.39622 0.237695 1.33789C0.212695 1.27956 0.200195 1.21706 0.200195 1.15039C0.200195 1.01706 0.246029 0.900391 0.337695 0.800391C0.429362 0.700391 0.550195 0.650391 0.700195 0.650391H8.30019C8.45019 0.650391 8.57103 0.700391 8.66269 0.800391C8.75436 0.900391 8.80019 1.01706 8.80019 1.15039C8.80019 1.18372 8.75019 1.30039 8.65019 1.50039L5.02519 5.12539C4.94186 5.20872 4.85853 5.26706 4.77519 5.30039C4.69186 5.33372 4.60019 5.35039 4.50019 5.35039C4.40019 5.35039 4.30853 5.33372 4.22519 5.30039C4.14186 5.26706 4.05853 5.20872 3.97519 5.12539Z" fill="#0055FF"/>
</svg>
