<svg width="6" height="3" viewBox="0 0 6 3" fill="none" xmlns="http://www.w3.org/2000/svg">
<path d="M2.67187 2.80518L0.40625 0.539551C0.375 0.508301 0.351562 0.474447 0.335937 0.437988C0.320312 0.40153 0.3125 0.362467 0.3125 0.320801C0.3125 0.237467 0.341146 0.164551 0.398437 0.102051C0.455729 0.0395508 0.53125 0.00830078 0.625 0.00830078H5.375C5.46875 0.00830078 5.54427 0.0395508 5.60156 0.102051C5.65885 0.164551 5.6875 0.237467 5.6875 0.320801C5.6875 0.341634 5.65625 0.414551 5.59375 0.539551L3.32812 2.80518C3.27604 2.85726 3.22396 2.89372 3.17187 2.91455C3.11979 2.93538 3.0625 2.9458 3 2.9458C2.9375 2.9458 2.88021 2.93538 2.82812 2.91455C2.77604 2.89372 2.72396 2.85726 2.67187 2.80518Z" fill="#760002"/>
</svg>
