<svg width="19" height="17" viewBox="0 0 19 17" fill="none" xmlns="http://www.w3.org/2000/svg">
<path d="M8 7.69225C7.0375 7.69225 6.21358 7.34958 5.52825 6.66425C4.84275 5.97875 4.5 5.15475 4.5 4.19225C4.5 3.22975 4.84275 2.40583 5.52825 1.7205C6.21358 1.035 7.0375 0.692245 8 0.692245C8.9625 0.692245 9.78642 1.035 10.4718 1.7205C11.1573 2.40583 11.5 3.22975 11.5 4.19225C11.5 5.15475 11.1573 5.97875 10.4718 6.66425C9.78642 7.34958 8.9625 7.69225 8 7.69225ZM0.5 13.7885V13.0845C0.5 12.5795 0.6305 12.1222 0.8915 11.7125C1.15233 11.3028 1.51033 10.9827 1.9655 10.752C2.868 10.2943 3.80333 9.93916 4.7715 9.6865C5.73967 9.434 6.73125 9.30775 7.74625 9.30775H7.8905C8.103 9.30775 8.28108 9.3825 8.42475 9.532C8.56842 9.68166 8.64025 9.8625 8.64025 10.0745C8.64025 10.2863 8.56842 10.4641 8.42475 10.6077C8.28108 10.7512 8.103 10.823 7.8905 10.823H7.74625C6.84408 10.823 5.97017 10.9317 5.1245 11.149C4.27867 11.3663 3.45508 11.6833 2.65375 12.1C2.46158 12.2025 2.30458 12.3384 2.18275 12.5077C2.06092 12.6769 2 12.8692 2 13.0845V13.8077H7.8905C8.103 13.8077 8.28108 13.8797 8.42475 14.0235C8.56842 14.1672 8.64025 14.3453 8.64025 14.558C8.64025 14.7707 8.56842 14.9487 8.42475 15.0922C8.28108 15.2359 8.103 15.3077 7.8905 15.3077H2.01925C1.59742 15.3077 1.23875 15.16 0.94325 14.8645C0.64775 14.5688 0.5 14.2102 0.5 13.7885ZM14.0038 15.4692L13.8828 14.721C13.6442 14.6505 13.4198 14.5582 13.2095 14.4442C12.9993 14.3301 12.7993 14.1871 12.6095 14.0152L11.8655 14.2885C11.7065 14.3423 11.5528 14.339 11.4045 14.2785C11.2563 14.218 11.1407 14.1213 11.0577 13.9885L10.925 13.7537C10.8403 13.6114 10.81 13.4563 10.834 13.2885C10.858 13.1207 10.9358 12.9828 11.0673 12.875L11.6655 12.4C11.5937 12.141 11.5577 11.8858 11.5577 11.6345C11.5577 11.3833 11.5937 11.1282 11.6655 10.8692L11.077 10.375C10.945 10.2698 10.8655 10.1368 10.8385 9.976C10.8115 9.815 10.8403 9.66341 10.925 9.52125L11.073 9.27125C11.1578 9.13825 11.273 9.0415 11.4185 8.981C11.5638 8.92066 11.716 8.91741 11.875 8.97125L12.6095 9.24425C12.7928 9.07241 12.9913 8.93108 13.2048 8.82025C13.4183 8.70925 13.6442 8.6185 13.8828 8.548L14.0038 7.7845C14.0346 7.61533 14.1135 7.47916 14.2405 7.376C14.3673 7.27283 14.5153 7.22125 14.6845 7.22125H14.95C15.1192 7.22125 15.2673 7.27541 15.3943 7.38375C15.5211 7.49208 15.5999 7.63083 15.6307 7.8L15.7423 8.548C15.9808 8.6185 16.2067 8.71183 16.4202 8.828C16.6336 8.944 16.8319 9.093 17.0152 9.275L17.7193 9.002C17.8884 8.93783 18.0493 8.93616 18.202 8.997C18.3545 9.058 18.4728 9.15808 18.5568 9.29725L18.7008 9.541C18.7848 9.68033 18.8133 9.833 18.7865 9.999C18.7595 10.165 18.68 10.3006 18.548 10.4057L17.9595 10.9C18.0313 11.1405 18.0673 11.391 18.0673 11.6515C18.0673 11.912 18.0313 12.1615 17.9595 12.4L18.5578 12.875C18.6898 12.9802 18.7676 13.1147 18.7913 13.2787C18.8149 13.4429 18.7845 13.5962 18.7 13.7385L18.5518 13.9885C18.4684 14.1213 18.3553 14.218 18.2125 14.2785C18.0695 14.339 17.9185 14.3423 17.7595 14.2885L17.0152 14.0152C16.8256 14.1871 16.6256 14.3301 16.4152 14.4442C16.2051 14.5582 15.9808 14.6505 15.7423 14.721L15.6307 15.4845C15.5999 15.6538 15.5211 15.7901 15.3943 15.8932C15.2673 15.9964 15.1192 16.048 14.95 16.048H14.6845C14.5153 16.048 14.3673 15.9938 14.2405 15.8855C14.1135 15.7772 14.0346 15.6384 14.0038 15.4692ZM14.8085 13.5385C15.3323 13.5385 15.7804 13.352 16.1528 12.979C16.5252 12.606 16.7115 12.1576 16.7115 11.6337C16.7115 11.1099 16.525 10.6618 16.152 10.2895C15.779 9.917 15.3306 9.73075 14.8068 9.73075C14.2831 9.73075 13.835 9.91724 13.4625 10.2902C13.09 10.6632 12.9038 11.1117 12.9038 11.6355C12.9038 12.1592 13.0903 12.6072 13.4633 12.9797C13.8363 13.3522 14.2847 13.5385 14.8085 13.5385ZM8 6.19225C8.55 6.19225 9.02083 5.99641 9.4125 5.60475C9.80417 5.21308 10 4.74225 10 4.19225C10 3.64225 9.80417 3.17141 9.4125 2.77975C9.02083 2.38808 8.55 2.19225 8 2.19225C7.45 2.19225 6.97917 2.38808 6.5875 2.77975C6.19583 3.17141 6 3.64225 6 4.19225C6 4.74225 6.19583 5.21308 6.5875 5.60475C6.97917 5.99641 7.45 6.19225 8 6.19225Z" fill="#111928"/>
</svg>
